<?xml version="1.0" ?><!DOCTYPE svg  PUBLIC '-//W3C//DTD SVG 1.1//EN'  'http://www.w3.org/Graphics/SVG/1.1/DTD/svg11.dtd'><svg enable_background="new 0 0 500 523" height="523px" style="stroke-linejoin: round; stroke:#000; fill:#f6f3f0;" version="1.1" viewBox="0 0 500 523" width="500px" xmlns="http://www.w3.org/2000/svg" xmlns:xlink="http://www.w3.org/1999/xlink"><defs><style type="text/css"><![CDATA[path { fill-rule: evenodd; }
#context path { fill: #eee; stroke: #bbb; } ]]></style></defs><metadata><views><view h="523.857434106" padding="0" w="500"><proj id="laea" lat0="0" lon0="20"/><bbox h="987.16" w="944.0" x="504.73" y="500.37"/><llbbox lat0="-38.0" lat1="39.0" lon0="-21.0" lon1="57.0"/></view></views></metadata><g id="countries"><path d="M162.11,139.07L164.14,138.71L164.73,138.59L167.17,138.15L169.51,137.75L171.88,137.35L174.02,136.98L174.85,136.26L176.72,134.65L178.50,133.12L180.13,131.77L181.71,130.42L183.52,128.95L185.37,127.67L187.11,126.63L188.94,125.55L190.79,124.45L192.62,123.37L194.37,122.34L196.18,121.26L198.20,120.07L200.23,118.91L202.43,117.63L204.28,116.55L206.09,115.50L207.95,114.43L209.70,113.42L211.59,112.35L213.34,111.36L212.93,110.53L212.00,108.65L210.80,106.86L208.88,106.04L207.12,105.08L204.62,105.05L202.99,103.76L202.07,101.73L202.05,99.36L200.91,97.58L199.81,95.87L199.06,93.62L200.71,92.42L201.94,90.81L201.62,88.76L201.41,86.74L202.29,84.93L202.62,82.93L202.19,80.92L202.52,78.81L202.71,76.74L202.57,74.59L201.95,72.32L201.23,70.42L201.54,68.36L201.20,66.38L200.85,64.23L200.46,61.89L200.03,59.22L199.85,57.20L198.33,55.70L196.36,54.29L195.72,51.98L194.69,50.12L192.65,49.10L192.11,46.70L191.98,44.64L193.26,43.10L194.70,41.60L196.38,40.51L196.85,38.55L197.82,36.77L197.58,34.79L197.29,32.73L197.90,30.69L197.06,28.86L198.86,27.88L200.00,26.20L198.65,26.31L196.64,26.54L194.62,25.80L192.75,25.08L191.04,26.18L189.03,25.59L187.03,25.64L185.11,26.35L183.07,26.73L181.10,27.29L179.57,25.98L177.54,25.66L175.50,25.45L173.48,25.40L171.23,26.06L169.20,25.70L167.37,26.66L165.33,26.61L163.36,26.95L161.29,27.04L159.27,27.10L157.31,27.77L155.36,28.36L153.42,29.20L152.09,30.73L150.09,30.35L148.36,31.46L146.31,31.55L144.73,32.84L142.97,33.91L141.03,34.86L138.98,34.89L139.52,35.79L140.89,37.45L140.62,39.81L140.61,42.06L140.61,44.71L139.90,46.58L140.24,48.60L141.37,50.27L141.53,52.29L140.12,53.85L138.01,53.73L135.70,53.39L133.54,53.54L131.42,53.98L130.51,55.84L128.52,56.14L126.77,57.33L125.70,59.07L125.23,61.10L123.25,61.60L121.14,61.96L118.78,62.92L117.84,64.86L116.33,66.38L114.35,66.94L112.30,67.24L110.27,67.66L108.34,68.34L106.23,68.00L104.17,68.27L102.31,69.30L100.40,70.18L98.64,71.18L96.89,72.18L95.08,73.19L94.67,75.27L94.25,77.57L93.80,79.99L93.35,82.41L94.54,83.36L96.36,84.82L98.20,86.25L100.03,87.71L101.92,89.22L103.50,90.53L105.10,91.88L106.77,93.23L108.35,94.54L109.53,95.52L111.68,97.32L113.28,98.66L114.54,99.71L116.33,101.20L118.30,102.80L119.90,104.09L121.48,105.38L123.10,106.65L124.78,108.02L126.35,109.27L127.92,110.53L129.74,112.00L131.43,113.37L133.01,114.65L134.72,116.04L136.57,117.51L138.16,118.78L139.67,120.44L141.58,121.85L143.30,123.12L144.96,124.35L146.37,125.79L146.80,127.77L148.58,128.76L149.58,130.59L151.45,131.38L153.24,132.34L155.17,132.86L157.09,133.52L158.15,135.25L157.86,137.26L157.99,139.28L160.02,139.44Z " data-code="ALG" data-country="Algeria" data-id="1"/><path d="M269.41,380.71L271.36,381.25L273.36,380.86L278.01,379.96L280.72,379.44L283.86,378.79L282.42,377.91L281.02,376.34L279.38,374.95L277.97,373.44L276.53,371.94L275.44,370.18L274.98,368.19L275.01,361.73L275.07,353.59L275.08,351.53L275.09,348.80L282.59,348.78L284.70,348.77L287.32,347.46L287.89,345.54L287.97,343.50L287.97,341.44L288.16,339.38L288.25,337.26L288.01,335.12L286.38,335.77L284.40,335.41L282.65,336.43L280.63,336.25L278.60,336.07L276.58,336.48L277.11,334.45L277.08,332.43L276.70,330.45L275.82,328.56L274.44,327.06L273.98,325.10L274.33,323.13L274.58,321.08L274.87,319.06L274.27,317.15L273.73,315.19L274.22,313.24L273.06,311.60L270.69,311.59L268.30,311.59L265.78,311.20L266.18,309.20L264.15,309.76L261.44,309.77L259.39,310.22L259.03,312.19L258.46,314.21L258.24,316.25L255.82,316.28L254.53,316.24L252.58,316.28L251.88,316.28L250.34,316.34L248.36,316.84L246.34,316.99L245.53,315.14L244.29,313.55L243.14,311.88L242.71,309.87L241.75,308.08L240.96,306.14L240.65,304.15L239.42,302.51L237.35,302.44L235.31,302.49L233.23,302.48L230.53,302.46L228.26,302.52L225.96,302.64L225.70,302.62L223.57,302.55L221.29,302.50L218.95,302.61L216.64,302.72L215.90,303.49L213.84,303.85L213.06,305.73L214.01,307.54L215.36,309.13L215.94,311.14L216.68,313.02L217.50,314.87L218.37,316.73L219.39,318.46L219.46,320.16L218.37,321.91L217.12,323.54L218.26,325.70L218.78,327.84L219.54,329.72L220.67,331.43L221.82,333.23L222.48,335.13L222.69,337.15L222.36,339.19L222.40,341.30L221.85,343.24L220.73,344.90L219.18,346.25L217.56,347.44L216.80,349.43L215.28,350.78L214.75,352.72L214.01,354.63L213.54,356.60L213.47,358.63L213.10,360.67L212.30,362.52L211.77,364.54L211.06,366.52L210.48,368.57L210.61,370.60L210.72,372.65L210.42,374.64L210.71,376.65L211.32,376.23L213.35,376.30L214.65,376.27L214.76,376.58L216.60,375.76L218.31,374.70L220.35,374.65L220.67,374.75L221.47,375.39L221.48,375.42L221.38,375.65L223.11,376.71L223.81,377.10L225.87,377.25L225.92,377.25L228.56,377.27L231.76,377.25L234.26,377.24L236.43,377.23L239.07,377.23L243.91,377.23L245.98,377.23L247.99,377.20L250.10,377.19L252.27,377.18L253.58,378.69L255.21,379.86L257.22,379.95L259.23,380.20L261.36,380.34L263.51,380.35L265.47,380.82L267.44,381.35Z " data-code="ANG" data-country="Angola" data-id="2"/><path d="M211.78,301.77L213.83,301.28L213.81,299.24L214.20,297.05L215.52,295.54L215.62,295.37L217.44,294.49L216.79,294.05L215.24,292.72L215.14,292.71L215.09,292.74L215.06,293.29L215.16,293.39L215.06,293.47L214.72,293.43L214.63,293.45L214.36,293.79L213.96,294.02L213.48,294.14L213.24,294.20L212.95,294.69L212.56,295.29L212.17,295.61L211.87,295.56L211.65,295.30L211.60,295.38L211.42,296.15L211.35,296.21L211.03,296.47L210.61,296.82L210.90,297.74L211.78,299.79L211.69,301.84Z " data-code="ANG" data-country="Angola" data-id="3"/><path d="M143.81,222.91L145.81,222.60L148.22,222.30L150.45,222.12L150.63,220.40L150.61,218.38L151.01,216.42L150.90,214.36L150.63,212.33L151.03,210.30L151.10,208.27L151.05,206.26L151.91,204.39L153.65,203.39L154.19,201.45L155.12,199.60L156.90,198.58L156.86,196.47L158.34,195.02L158.08,192.96L157.88,190.91L156.71,189.24L157.38,187.17L156.64,186.08L155.07,184.78L153.66,183.30L151.65,183.09L149.73,183.68L149.83,185.71L149.12,187.10L148.81,187.36L147.23,188.78L145.22,188.86L143.22,188.90L141.66,190.20L140.07,191.50L139.98,191.78L139.26,193.69L139.35,195.79L140.94,197.03L142.59,198.18L142.57,200.42L142.76,202.52L144.01,204.27L144.03,206.28L143.92,208.48L143.90,210.53L143.84,212.60L143.82,214.70L143.72,217.01L143.44,219.03L144.00,220.96L143.48,223.00Z " data-code="BEN" data-country="Benin" data-id="20"/><path d="M273.30,436.53L275.12,435.65L276.49,434.20L276.54,434.15L277.89,433.29L277.96,433.28L278.81,431.55L279.38,429.60L280.59,427.97L280.66,427.95L281.44,427.93L283.43,428.21L283.47,428.25L285.12,429.26L286.97,430.09L288.85,430.81L290.83,431.22L292.80,430.81L294.83,430.83L294.90,430.81L295.03,430.73L296.42,429.23L297.11,427.33L297.72,424.78L297.76,424.73L299.07,424.33L301.15,423.91L301.21,423.89L301.35,423.74L302.74,422.28L304.06,420.73L304.67,418.81L305.73,417.10L305.78,417.09L306.54,416.55L308.42,415.79L309.86,414.35L309.93,414.42L311.26,413.13L312.51,411.51L314.42,410.84L314.62,410.90L316.52,410.19L317.83,408.62L319.86,408.52L318.33,407.61L317.61,405.74L315.72,405.02L313.73,404.61L311.73,404.30L310.91,402.42L310.04,400.46L310.08,398.45L308.41,397.34L307.43,395.56L305.80,394.32L303.90,393.46L302.21,392.29L300.63,390.90L299.94,388.91L299.23,386.99L298.34,385.17L296.92,383.70L295.99,381.93L295.42,379.90L295.34,379.83L294.34,380.13L292.30,380.44L291.49,381.03L289.45,381.13L287.65,382.05L286.19,383.44L284.28,382.83L283.10,381.16L281.07,381.24L278.02,381.84L271.51,383.14L268.57,383.13L268.53,388.70L268.51,393.42L268.50,396.11L268.49,399.91L268.47,406.81L262.30,408.39L262.30,415.11L262.30,418.69L262.30,422.23L262.30,424.46L263.37,425.35L264.89,426.68L265.91,428.44L266.46,430.39L267.28,432.24L266.83,434.22L266.09,436.10L267.64,437.37L269.63,437.68L271.64,437.72Z " data-code="BOT" data-country="Botswana" data-id="21"/><path d="M116.38,200.69L116.47,198.65L116.32,196.65L115.96,194.66L115.89,192.58L117.24,191.08L119.30,191.19L121.34,191.28L123.43,191.33L125.45,191.28L127.54,191.25L129.54,191.35L131.51,190.97L133.44,190.44L134.15,190.62L136.11,191.06L138.05,191.64L140.07,191.50L141.66,190.20L143.22,188.90L145.22,188.86L147.23,188.78L148.81,187.36L149.12,187.10L149.83,185.71L149.48,185.21L148.91,181.22L147.05,180.46L144.82,180.81L143.00,179.19L141.31,177.46L142.33,175.63L140.58,174.22L138.97,172.94L137.86,171.22L137.43,169.26L137.04,167.27L137.28,165.17L136.99,165.20L135.02,164.81L133.04,164.47L131.11,164.59L129.47,165.86L127.51,166.61L123.27,168.17L122.29,170.33L120.05,169.30L117.68,171.22L116.93,173.58L114.87,173.46L114.79,175.51L113.12,176.61L111.47,175.38L109.35,175.34L107.75,176.69L108.36,178.63L106.95,180.10L106.55,182.08L105.41,183.75L104.40,184.08L102.38,184.35L100.56,185.22L101.61,186.92L101.21,188.94L99.67,190.26L99.70,192.44L99.27,194.45L100.08,195.39L101.97,196.20L102.60,198.18L104.16,199.52L106.06,200.17L107.57,198.83L109.53,198.24L111.64,198.08L113.70,198.50L115.07,199.99L116.76,201.07Z " data-code="BUF" data-country="Burkina Faso" data-id="22"/><path d="M326.02,292.77L327.69,291.65L328.86,290.00L329.94,288.30L331.35,286.80L332.81,285.41L331.65,283.66L330.56,281.93L331.08,279.97L329.80,279.48L329.76,279.54L329.16,279.65L327.11,279.82L326.82,281.87L324.73,282.51L323.01,281.48L321.12,282.12L321.53,283.31L322.31,285.16L322.42,287.17L322.42,289.19L323.24,291.09L323.36,293.22L325.07,293.23L325.11,293.23Z " data-code="BUR" data-country="Burundi" data-id="23"/><path d="M236.76,251.54L237.47,249.63L236.77,248.17L236.65,246.17L235.81,244.34L234.22,243.07L232.76,241.40L231.25,239.72L230.12,238.03L230.29,236.01L228.78,234.69L227.96,232.87L227.81,230.86L227.12,228.91L227.39,226.92L226.39,225.16L227.57,223.54L228.85,221.87L229.74,220.07L230.83,218.34L231.72,216.52L233.19,215.01L233.22,213.26L232.51,211.36L231.68,209.39L230.66,207.54L228.83,206.70L227.26,205.44L226.09,203.66L224.65,202.24L224.14,200.29L225.60,198.86L227.70,199.07L229.74,199.00L231.88,199.03L233.97,198.66L232.52,197.23L231.28,195.59L230.57,193.67L230.40,191.67L230.62,189.65L230.87,187.64L230.62,185.64L229.67,183.82L229.21,181.82L227.46,180.82L226.76,178.91L224.48,178.88L224.57,179.43L224.90,181.47L225.25,183.48L227.20,183.99L227.86,185.88L227.40,187.85L226.55,189.66L224.74,190.70L222.91,191.60L221.66,193.17L220.65,194.96L220.45,196.98L219.03,198.40L218.87,200.45L217.59,202.02L216.49,203.06L216.30,205.11L215.42,206.94L213.62,207.90L212.06,209.20L211.89,211.36L210.99,213.18L210.43,215.12L209.18,216.71L209.22,216.97L208.01,218.66L207.47,220.60L205.62,221.45L203.88,220.41L202.81,218.69L201.21,217.44L199.88,218.94L197.86,218.66L196.05,219.72L194.90,221.37L193.24,222.53L191.98,224.11L190.38,225.48L190.29,227.48L189.67,229.46L188.86,231.44L187.77,233.14L187.74,234.67L189.78,234.41L190.51,236.31L191.78,237.86L193.69,238.64L195.40,237.46L194.30,239.16L195.29,241.19L196.56,242.77L196.61,244.81L196.19,246.79L196.07,248.81L197.64,249.96L199.71,249.90L200.44,249.90L201.53,249.90L203.70,249.90L205.85,249.90L206.61,249.06L208.62,249.24L210.66,249.18L212.67,249.31L214.67,249.47L216.68,249.44L218.63,249.94L220.26,249.95L222.72,249.94L224.79,249.94L226.82,249.68L228.67,250.54L230.70,250.81L232.64,251.31L234.75,251.75Z " data-code="CAM" data-country="Cameroon" data-id="24"/><path d="M238.17,248.31L239.18,246.40L239.51,244.41L239.97,242.40L241.59,241.15L243.62,240.86L245.49,240.16L247.57,240.31L249.52,240.83L251.52,240.59L253.40,241.47L253.17,239.32L253.45,237.32L254.32,235.44L255.39,233.65L256.53,231.95L256.68,231.90L257.50,231.41L259.36,230.57L261.31,231.03L261.35,231.10L261.36,231.12L263.10,232.21L264.77,233.47L264.94,233.62L265.10,233.81L266.47,235.37L268.51,235.23L270.35,236.11L272.33,236.42L274.34,236.43L276.33,236.97L278.34,237.14L279.21,235.80L280.13,233.95L281.60,232.56L281.65,232.59L281.90,233.11L283.74,233.93L285.66,233.23L287.62,232.59L289.56,231.95L291.41,230.85L291.47,230.85L291.82,231.00L293.55,232.03L295.51,231.63L296.94,230.17L298.62,229.07L298.61,229.14L299.30,229.51L301.26,230.04L303.22,230.42L305.16,230.98L307.16,230.99L309.07,230.33L310.82,231.34L310.62,230.87L309.39,229.18L309.25,227.18L307.74,225.85L305.93,224.89L304.37,223.50L303.10,221.92L302.54,219.93L301.07,218.30L299.34,217.30L297.53,216.44L295.99,215.14L296.41,213.14L294.66,212.16L293.23,210.75L291.28,210.16L289.32,209.70L289.70,207.72L288.13,207.34L286.07,207.23L284.68,205.55L285.68,203.75L285.86,201.72L285.96,199.64L284.77,197.75L283.57,195.86L282.06,194.53L280.84,192.90L279.56,192.58L277.46,192.74L275.48,193.18L273.81,194.33L273.68,196.33L272.04,197.70L270.57,199.06L269.07,200.44L267.96,202.12L266.42,203.40L264.74,204.56L262.67,204.55L260.75,205.15L258.75,205.31L256.75,205.42L254.98,206.37L256.58,207.56L255.81,208.72L254.51,210.28L253.04,211.68L250.99,211.83L248.84,212.24L246.73,212.40L244.81,213.23L243.12,214.34L240.96,214.22L238.93,214.09L236.95,214.62L235.14,215.58L233.19,215.01L231.72,216.52L230.83,218.34L229.74,220.07L228.85,221.87L227.57,223.54L226.39,225.16L227.39,226.92L227.12,228.91L227.81,230.86L227.96,232.87L228.78,234.69L230.29,236.01L230.12,238.03L231.25,239.72L232.76,241.40L234.22,243.07L235.81,244.34L236.65,246.17L236.77,248.17L237.47,249.63Z " data-code="CAR" data-country="Central African Republic" data-id="42"/><path d="M236.95,214.62L238.93,214.09L240.96,214.22L243.12,214.34L244.81,213.23L246.73,212.40L248.84,212.24L250.99,211.83L253.04,211.68L254.51,210.28L255.81,208.72L256.58,207.56L254.98,206.37L256.75,205.42L258.75,205.31L260.75,205.15L262.67,204.55L264.74,204.56L266.42,203.40L267.96,202.12L269.07,200.44L270.57,199.06L272.04,197.70L273.68,196.33L273.81,194.33L275.48,193.18L277.46,192.74L279.56,192.58L280.84,192.90L280.89,192.74L281.48,190.70L280.00,189.37L278.75,187.72L278.95,185.61L278.86,185.61L278.28,185.00L277.80,183.62L277.82,183.45L277.74,183.36L277.72,182.77L277.76,182.75L277.91,182.37L278.04,181.91L277.73,181.80L277.41,181.67L276.94,181.43L276.88,181.40L274.86,181.82L274.73,181.85L274.34,181.37L274.21,181.07L274.07,180.77L274.33,179.96L274.40,179.70L275.57,178.53L276.77,176.86L276.60,176.65L276.49,176.33L276.49,176.32L275.65,174.45L275.84,174.15L276.40,173.54L276.92,173.16L277.77,172.67L278.51,172.16L278.57,171.64L278.28,171.41L277.78,171.04L277.98,170.86L277.85,170.28L277.86,170.24L277.90,169.94L277.63,169.21L277.77,169.13L279.48,168.06L280.33,166.22L280.48,166.06L280.68,165.90L280.77,165.90L280.98,165.82L280.97,165.79L280.95,165.40L281.02,165.34L281.16,165.27L281.24,165.16L281.33,165.01L281.29,164.86L281.29,164.31L281.29,164.09L281.28,163.82L281.21,163.77L280.86,163.43L280.88,163.19L280.89,162.95L281.36,162.70L281.55,162.51L281.67,162.28L281.69,162.26L282.05,161.95L282.15,161.91L282.75,161.97L283.96,162.02L284.13,161.96L284.43,161.79L284.98,161.62L285.51,161.59L285.83,161.65L286.40,161.69L286.74,161.76L287.41,161.92L287.58,161.94L287.65,160.76L287.62,159.37L287.59,157.43L287.56,155.49L287.52,152.91L287.48,150.33L287.43,147.75L287.39,145.17L287.35,142.59L287.30,140.02L287.25,137.39L285.31,136.38L283.50,135.43L281.54,134.41L279.74,133.46L277.95,132.53L276.14,131.57L274.34,130.62L272.55,129.69L270.73,128.74L268.54,127.60L266.44,126.54L264.47,125.49L262.30,124.39L256.58,121.48L254.22,120.29L252.42,119.38L249.95,118.14L247.31,116.82L245.35,115.84L243.54,114.93L241.50,113.91L239.66,112.99L237.65,112.19L235.78,113.03L233.90,113.88L231.68,114.90L231.67,115.00L231.69,115.19L232.03,117.31L232.46,119.98L232.67,122.35L232.64,124.62L234.29,126.67L234.72,128.64L235.97,130.27L237.33,132.14L235.91,134.48L235.57,136.47L235.29,138.47L234.93,140.88L234.68,142.97L234.54,145.03L234.37,147.56L234.23,149.60L234.11,151.65L233.97,153.75L232.81,155.40L231.32,156.93L229.47,158.90L228.07,160.34L226.54,161.94L225.25,163.66L224.01,165.40L222.87,167.20L222.16,169.10L220.87,170.79L221.27,172.78L221.68,174.75L222.19,175.50L223.51,177.48L224.48,178.88L226.76,178.91L227.46,180.82L229.21,181.82L229.67,183.82L230.62,185.64L230.87,187.64L230.62,189.65L230.40,191.67L230.57,193.67L231.28,195.59L232.52,197.23L233.97,198.66L231.88,199.03L229.74,199.00L227.70,199.07L225.60,198.86L224.14,200.29L224.65,202.24L226.09,203.66L227.26,205.44L228.83,206.70L230.66,207.54L231.68,209.39L232.51,211.36L233.22,213.26L233.19,215.01L235.14,215.58Z " data-code="CHA" data-country="Chad" data-id="43"/><path d="M411.56,341.73L410.80,339.87L410.42,341.97L411.74,343.53Z " data-code="COM" data-country="Comoros" data-id="44"/><path d="M211.03,296.47L211.35,296.21L211.42,296.15L211.60,295.38L211.65,295.30L211.87,295.56L212.17,295.61L212.56,295.29L212.95,294.69L213.24,294.20L213.48,294.14L213.96,294.02L214.36,293.79L214.63,293.45L214.72,293.43L215.06,293.47L215.16,293.39L215.06,293.29L215.09,292.74L215.14,292.71L215.24,292.72L216.13,292.94L217.44,294.49L218.29,294.70L219.62,296.25L221.31,295.15L221.67,293.17L221.75,293.12L223.76,292.91L225.54,293.88L225.90,295.87L227.13,296.14L228.96,295.18L229.10,294.95L230.53,293.38L232.46,292.17L233.54,290.48L235.66,289.86L236.49,288.02L237.49,286.22L237.42,284.16L237.58,281.92L237.45,279.91L237.93,277.88L239.40,276.50L240.49,274.66L241.40,272.81L243.10,271.38L244.96,270.59L246.48,268.90L247.49,266.97L247.38,264.96L248.03,262.85L248.99,261.09L248.57,259.07L248.49,257.05L249.30,254.95L249.80,253.01L249.68,250.90L250.32,249.01L251.41,247.27L252.13,245.32L253.27,243.66L253.44,241.63L251.52,240.59L249.52,240.83L247.57,240.31L245.49,240.16L243.62,240.86L241.59,241.15L239.97,242.40L239.51,244.41L239.18,246.40L238.17,248.31L237.47,249.63L236.76,251.54L234.75,251.75L232.64,251.31L230.70,250.81L228.67,250.54L226.82,249.68L224.79,249.94L222.72,249.94L220.26,249.95L218.63,249.94L218.60,250.24L217.94,252.14L217.87,254.14L218.25,256.13L220.29,255.77L222.10,254.80L224.12,255.01L225.42,256.59L226.38,258.38L225.38,260.14L223.65,261.32L222.60,263.07L222.48,265.07L224.15,266.17L225.86,267.33L226.16,269.36L226.09,271.37L226.33,273.57L225.90,275.58L224.80,277.41L224.36,279.43L222.41,280.09L221.17,278.49L219.57,279.90L217.54,279.55L216.12,278.10L215.04,276.37L213.26,277.33L213.61,279.36L211.65,279.96L209.56,279.68L207.93,280.88L208.87,282.84L210.32,284.32L210.22,286.52L209.34,288.63L207.69,287.36L205.70,288.05L205.08,290.16L205.39,290.49L206.69,292.00L208.31,293.40L209.12,295.43L210.61,296.82Z " data-code="CNG" data-country="Congo-Brazzaville" data-id="48"/><path d="M86.04,234.44L87.93,233.66L89.74,232.68L91.79,231.96L93.66,231.24L95.52,230.45L97.79,230.10L99.90,229.91L102.27,229.77L104.28,229.52L106.33,229.32L108.53,229.49L110.61,229.83L112.99,230.22L113.36,230.08L115.18,229.20L115.24,227.18L113.67,225.84L113.30,223.78L112.72,221.79L112.77,219.44L113.36,217.50L113.78,217.12L114.38,215.20L114.98,213.02L116.04,211.28L117.61,209.55L117.37,207.36L116.96,205.20L116.40,203.21L116.76,201.07L115.07,199.99L113.70,198.50L111.64,198.08L109.53,198.24L107.57,198.83L106.06,200.17L104.16,199.52L102.60,198.18L101.97,196.20L100.08,195.39L99.27,194.45L99.06,194.31L97.08,194.76L95.07,194.76L93.71,193.28L92.06,194.63L91.08,194.63L89.34,195.62L87.44,194.56L85.40,194.65L83.75,195.82L83.43,196.39L82.70,198.37L82.56,200.42L83.83,201.98L83.56,204.08L84.68,205.85L85.17,207.90L83.35,207.04L81.44,207.71L82.87,209.21L82.07,211.15L81.56,213.17L80.09,214.55L80.63,216.65L80.16,218.67L79.63,220.61L81.20,221.94L83.17,222.28L83.91,224.28L85.80,224.95L85.92,226.95L85.42,228.92L84.89,230.87L84.60,232.86L84.82,234.87Z " data-code="CDI" data-country="Cote d`Ivoire" data-id="49"/><path d="M324.95,349.87L325.02,347.69L325.09,345.26L323.53,343.88L321.82,345.06L319.93,344.38L318.54,342.80L316.83,341.70L316.09,339.78L316.70,337.84L316.99,335.82L318.05,334.10L317.82,332.02L317.86,329.95L318.18,327.88L317.36,325.97L317.20,323.97L318.94,322.65L320.15,320.97L321.49,319.30L323.63,319.00L325.76,318.73L327.81,318.50L329.83,318.26L331.94,317.98L331.79,317.44L330.91,315.44L329.97,313.09L329.07,310.97L328.01,309.23L326.37,307.91L324.92,306.10L324.73,305.60L324.45,304.06L324.46,303.15L324.48,303.01L324.61,302.45L324.65,302.14L324.67,301.88L324.62,301.20L324.55,300.90L324.01,299.10L323.31,297.22L322.93,294.88L322.99,294.57L323.36,293.22L323.24,291.09L322.42,289.19L322.42,287.17L322.31,285.16L321.53,283.31L321.12,282.12L320.39,281.67L320.65,279.67L322.02,278.19L321.91,276.09L323.10,274.34L324.78,273.20L324.88,272.26L324.77,270.27L325.19,268.31L325.35,266.31L325.61,263.76L326.54,261.98L327.21,260.08L328.12,258.29L329.16,256.58L331.02,255.83L333.03,253.54L334.57,251.78L335.29,249.60L333.44,248.82L332.42,247.10L333.14,245.23L332.69,243.28L332.96,241.29L332.87,241.21L331.09,240.27L329.93,238.60L328.35,237.31L326.94,235.88L325.80,234.13L323.82,233.66L322.72,235.44L320.79,234.81L318.79,234.90L317.12,236.14L315.22,235.42L313.47,234.39L312.43,232.67L310.82,231.34L309.07,230.33L307.16,230.99L305.16,230.98L303.22,230.42L301.26,230.04L299.30,229.51L298.61,229.14L298.62,229.07L296.94,230.17L295.51,231.63L293.55,232.03L291.82,231.00L291.47,230.85L291.41,230.85L289.56,231.95L287.62,232.59L285.66,233.23L283.74,233.93L281.90,233.11L281.65,232.59L281.60,232.56L280.13,233.95L279.21,235.80L278.34,237.14L276.33,236.97L274.34,236.43L272.33,236.42L270.35,236.11L268.51,235.23L266.47,235.37L265.10,233.81L264.94,233.62L264.77,233.47L263.10,232.21L261.36,231.12L261.35,231.10L261.31,231.03L259.36,230.57L257.50,231.41L256.68,231.90L256.53,231.95L255.39,233.65L254.32,235.44L253.45,237.32L253.17,239.32L253.40,241.47L253.44,241.63L253.27,243.66L252.13,245.32L251.41,247.27L250.32,249.01L249.68,250.90L249.80,253.01L249.30,254.95L248.49,257.05L248.57,259.07L248.99,261.09L248.03,262.85L247.38,264.96L247.49,266.97L246.48,268.90L244.96,270.59L243.10,271.38L241.40,272.81L240.49,274.66L239.40,276.50L237.93,277.88L237.45,279.91L237.58,281.92L237.42,284.16L237.49,286.22L236.49,288.02L235.66,289.86L233.54,290.48L232.46,292.17L230.53,293.38L229.10,294.95L228.96,295.18L227.99,296.03L225.90,295.87L225.54,293.88L223.76,292.91L221.75,293.12L221.67,293.17L221.31,295.15L219.62,296.25L218.29,294.70L217.44,294.49L215.62,295.37L215.52,295.54L214.20,297.05L213.81,299.24L213.83,301.28L211.78,301.77L211.69,301.84L212.70,303.05L214.72,303.35L216.64,302.72L218.95,302.61L221.29,302.50L223.57,302.55L225.70,302.62L225.96,302.64L228.26,302.52L230.53,302.46L233.23,302.48L235.31,302.49L237.35,302.44L239.42,302.51L240.65,304.15L240.96,306.14L241.75,308.08L242.71,309.87L243.14,311.88L244.29,313.55L245.53,315.14L246.34,316.99L248.36,316.84L250.34,316.34L251.88,316.28L252.58,316.28L254.53,316.24L255.82,316.28L258.24,316.25L258.46,314.21L259.03,312.19L259.39,310.22L261.44,309.77L264.15,309.76L266.18,309.20L265.78,311.20L268.30,311.59L270.69,311.59L273.06,311.60L274.22,313.24L273.73,315.19L274.27,317.15L274.87,319.06L274.58,321.08L274.33,323.13L273.98,325.10L274.44,327.06L275.82,328.56L276.70,330.45L277.08,332.43L277.11,334.45L276.58,336.48L278.60,336.07L280.63,336.25L282.65,336.43L284.40,335.41L286.38,335.77L288.01,335.12L288.83,335.52L290.52,336.78L290.80,338.88L292.60,337.99L294.53,337.47L296.30,338.46L297.20,340.28L299.14,341.18L301.23,342.01L303.30,341.94L305.31,342.47L307.12,341.52L308.68,340.22L310.20,342.04L311.12,343.96L313.12,344.26L314.94,345.14L316.63,346.35L317.92,348.03L318.84,349.82L319.74,351.69L321.73,351.39L323.54,350.44L324.89,352.03Z " data-code="ZAI" data-country="Democratic Republic of Congo" data-id="51"/><path d="M405.08,191.08L407.11,190.59L409.02,191.13L409.24,190.65L410.68,187.87L408.97,187.14L406.90,187.38L408.21,185.87L409.94,184.85L411.39,183.27L410.67,181.34L409.40,179.70L408.50,180.08L406.94,181.90L405.01,181.33L404.51,182.23L403.48,184.03L402.40,185.73L401.35,187.59L401.67,189.65L402.81,191.41Z " data-code="DJI" data-country="Djibouti" data-id="64"/><path d="M348.46,121.93L349.02,119.67L350.97,118.72L352.88,117.00L355.25,115.20L357.62,112.82L357.00,111.19L356.63,109.20L357.12,107.22L355.75,105.74L354.18,104.28L353.28,102.45L352.26,100.63L351.16,98.96L350.18,97.21L348.88,95.52L347.84,93.79L346.73,92.10L345.55,90.45L345.23,88.31L344.24,86.56L342.87,85.09L342.84,83.07L341.27,81.77L339.87,80.29L338.60,78.72L337.39,77.11L336.71,75.22L336.61,75.06L335.67,73.25L334.70,71.49L335.75,69.75L336.47,71.69L337.44,73.52L338.83,74.98L339.82,76.72L340.43,78.64L341.96,79.94L343.33,81.43L344.94,82.67L346.93,82.95L347.72,81.11L347.68,79.08L348.36,77.11L348.43,75.05L349.01,73.08L349.10,71.07L348.32,69.10L347.28,66.88L346.36,64.85L345.32,62.96L343.25,61.64L341.24,62.30L339.23,62.59L337.21,62.58L335.17,62.87L333.30,62.02L332.27,62.96L331.85,60.97L329.88,60.43L327.88,60.16L325.88,60.32L323.88,60.40L321.80,61.48L319.88,62.13L318.26,63.40L316.53,64.50L314.22,64.65L312.21,63.71L310.13,63.39L307.97,62.81L305.95,62.63L304.06,61.65L302.05,61.25L299.94,60.95L297.92,60.50L295.91,60.25L293.91,60.90L292.01,60.07L291.75,60.18L290.40,61.68L290.82,63.75L291.37,65.86L290.69,67.81L290.07,69.87L290.76,72.26L291.26,74.28L291.74,76.26L291.81,78.36L291.88,80.47L291.96,82.58L292.03,84.69L292.09,86.80L292.16,88.92L292.23,91.04L292.30,93.15L292.36,95.27L292.43,97.39L292.49,99.51L292.56,101.64L292.63,104.08L292.69,106.24L292.76,108.56L292.81,110.69L292.87,112.82L292.93,114.95L292.99,117.08L293.04,119.21L293.09,121.34L294.60,121.33L297.06,121.31L299.52,121.29L302.02,121.26L304.52,121.23L307.02,121.20L309.54,121.17L312.00,121.13L314.46,121.11L316.93,121.06L319.38,121.03L321.88,120.98L324.32,120.95L326.81,120.91L329.33,120.88L332.86,119.38L334.32,120.76L336.79,120.72L339.25,120.66L343.22,120.57L345.74,122.31Z " data-code="EGY" data-country="Egypt" data-id="65"/><path d="M203.96,257.60L205.82,256.59L205.83,254.10L205.83,251.99L205.85,249.90L203.70,249.90L201.53,249.90L200.44,249.90L199.81,249.90L199.71,249.90L197.64,249.96L196.07,248.81L195.81,249.38L195.94,251.43L194.76,253.07L193.78,254.83L193.03,256.69L194.97,257.18L195.20,257.15L197.21,257.59L199.36,257.59L201.80,257.60Z " data-code="EQG" data-country="Equatorial Guinea" data-id="166"/><path d="M189.82,240.96L190.10,239.46L188.24,240.30L187.01,241.94L188.88,242.74Z " data-code="EQG" data-country="Equatorial Guinea" data-id="167"/><path d="M408.50,180.08L409.40,179.70L409.01,178.90L407.02,178.59L405.89,176.93L404.30,175.69L403.09,174.05L401.70,172.50L399.75,171.76L398.55,170.07L397.29,168.43L395.65,167.19L393.51,166.64L391.98,165.27L389.97,165.31L388.90,163.56L387.61,161.98L386.81,163.83L386.12,161.95L384.82,160.32L383.73,158.59L383.11,156.68L382.64,154.68L382.00,152.78L381.40,150.84L380.61,148.99L379.48,147.32L378.37,145.66L378.28,145.73L377.23,147.75L375.77,149.14L373.76,149.23L372.09,150.33L370.74,151.84L369.25,153.22L368.64,155.17L369.18,157.10L368.91,157.36L368.38,159.35L367.63,161.45L366.97,164.05L366.64,166.07L366.97,168.33L367.43,170.35L368.44,169.96L370.44,170.32L372.00,169.06L373.90,169.80L374.69,167.96L376.19,166.58L378.01,167.46L379.23,169.06L381.23,168.71L382.92,167.60L384.80,168.32L386.80,168.37L388.77,168.89L390.74,168.42L392.49,169.55L394.41,170.94L396.01,172.26L397.72,173.80L399.30,175.09L400.97,176.57L402.44,178.08L403.69,179.81L405.01,181.33L406.94,181.90Z " data-code="ERI" data-country="Eritrea" data-id="171"/><path d="M390.52,239.58L392.13,237.90L394.36,236.92L396.28,236.05L398.16,236.86L399.91,237.88L402.02,237.76L404.05,237.72L404.34,237.18L406.28,236.33L408.32,236.11L410.28,235.47L411.27,233.69L413.07,232.53L415.50,231.63L417.50,231.17L419.76,231.17L421.97,231.26L424.16,230.58L427.78,226.50L429.43,224.63L430.88,222.97L433.06,220.47L435.11,218.11L437.87,214.91L439.18,213.38L440.56,210.41L438.04,210.46L435.45,210.48L433.15,209.69L431.23,209.04L429.31,208.42L426.87,207.62L424.69,206.92L422.64,206.25L420.71,205.61L418.34,204.84L416.41,203.98L414.78,202.72L413.13,201.50L411.71,199.99L410.48,198.38L409.20,196.77L408.17,194.99L407.89,192.89L409.02,191.13L407.11,190.59L405.08,191.08L402.81,191.41L401.67,189.65L401.35,187.59L402.40,185.73L403.48,184.03L404.51,182.23L405.01,181.33L403.69,179.81L402.44,178.08L400.97,176.57L399.30,175.09L397.72,173.80L396.01,172.26L394.41,170.94L392.49,169.55L390.74,168.42L388.77,168.89L386.80,168.37L384.80,168.32L382.92,167.60L381.23,168.71L379.23,169.06L378.01,167.46L376.19,166.58L374.69,167.96L373.90,169.80L372.00,169.06L370.44,170.32L368.44,169.96L367.43,170.35L367.38,170.63L367.03,172.67L366.51,174.82L365.88,176.75L365.41,178.73L365.41,180.75L363.30,180.83L361.70,182.18L360.80,184.05L359.86,185.85L358.95,187.78L358.39,189.73L358.28,191.86L356.91,193.32L354.84,193.70L354.20,195.68L354.31,197.80L353.56,199.78L353.13,201.76L353.22,202.49L353.44,204.50L353.53,206.50L352.61,208.40L350.60,208.73L348.59,208.74L347.37,210.33L346.32,212.06L347.98,213.21L349.94,213.62L351.78,214.47L353.04,216.04L354.14,217.88L355.98,218.70L357.42,220.14L359.12,221.29L359.26,223.31L359.50,225.34L360.41,227.20L361.55,228.98L363.53,228.66L365.10,229.93L364.88,231.93L365.76,233.73L366.42,234.84L368.46,234.82L370.82,234.85L373.15,235.50L374.81,236.68L376.83,238.07L379.11,239.50L380.99,240.26L383.06,240.28L384.97,240.90L387.04,241.10L389.17,241.42Z " data-code="ETH" data-country="Ethiopia" data-id="312"/><path d="M205.70,288.05L207.69,287.36L209.34,288.63L210.22,286.52L210.32,284.32L208.87,282.84L207.93,280.88L209.56,279.68L211.65,279.96L213.61,279.36L213.26,277.33L215.04,276.37L216.12,278.10L217.54,279.55L219.57,279.90L221.17,278.49L222.41,280.09L224.36,279.43L224.80,277.41L225.90,275.58L226.33,273.57L226.09,271.37L226.16,269.36L225.86,267.33L224.15,266.17L222.48,265.07L222.60,263.07L223.65,261.32L225.38,260.14L226.38,258.38L225.42,256.59L224.12,255.01L222.10,254.80L220.29,255.77L218.25,256.13L217.87,254.14L217.94,252.14L218.60,250.24L218.63,249.94L216.68,249.44L214.67,249.47L212.67,249.31L210.66,249.18L208.62,249.24L206.61,249.06L205.85,249.90L205.83,251.99L205.83,254.10L205.82,256.59L203.96,257.60L201.80,257.60L199.36,257.59L197.21,257.59L195.20,257.15L194.97,257.18L194.36,258.25L194.67,260.41L192.68,260.67L194.10,262.10L195.74,263.25L194.80,263.15L192.78,263.20L192.71,265.21L192.32,267.19L191.06,268.79L189.04,269.13L189.86,270.96L190.75,272.97L192.03,274.65L192.48,276.60L193.86,278.17L194.81,279.96L196.32,281.43L197.82,282.77L199.46,284.11L200.94,285.60L202.26,287.17L203.76,288.60L205.08,290.16Z " data-code="GAB" data-country="Gabon" data-id="313"/><path d="M31.71,173.96L33.75,174.01L36.09,174.12L38.04,172.84L40.13,173.00L42.05,171.88L44.02,173.09L45.87,174.01L47.88,173.73L49.26,172.28L47.66,173.12L45.68,172.86L43.90,171.94L42.30,170.73L40.30,170.86L38.74,172.12L36.75,172.33L35.23,173.64L33.25,173.31L31.83,171.89L31.23,172.56L31.36,174.57Z " data-code="GAM" data-country="Gambia" data-id="318"/><path d="M49.26,172.27L47.40,172.10L45.44,171.45L43.66,170.48L41.67,170.02L39.74,170.62L37.78,171.28L35.76,171.18L36.98,172.09L38.98,171.77L40.70,170.74L42.01,170.55L43.60,171.79L45.35,172.79L47.35,172.90Z " data-code="GAM" data-country="Gambia" data-id="319"/><path d="M35.75,171.18L34.45,171.12L33.00,171.05L33.07,171.23L34.44,172.70Z " data-code="GAM" data-country="Gambia" data-id="320"/><path d="M122.02,231.19L124.02,230.46L125.95,229.67L127.93,229.34L129.80,228.37L131.61,227.43L133.41,226.46L135.35,225.83L137.41,226.02L139.35,225.33L140.67,223.78L139.20,222.31L137.70,220.96L137.78,220.85L137.28,219.73L137.05,217.65L137.44,215.49L137.45,215.38L136.78,213.86L137.34,211.93L137.33,211.75L137.33,209.84L137.49,207.83L136.62,205.97L136.75,203.89L137.38,201.97L135.36,201.75L135.90,199.82L136.55,197.90L136.58,197.88L136.49,195.97L135.03,194.59L134.98,194.48L134.60,194.32L134.03,192.36L133.44,190.44L131.51,190.97L129.54,191.35L127.54,191.25L125.45,191.28L123.43,191.33L121.34,191.28L119.30,191.19L117.24,191.08L115.89,192.58L115.96,194.66L116.32,196.65L116.47,198.65L116.38,200.69L116.76,201.07L116.40,203.21L116.96,205.20L117.37,207.36L117.61,209.55L116.04,211.28L114.98,213.02L114.38,215.20L113.78,217.12L113.36,217.50L112.77,219.44L112.72,221.79L113.30,223.78L113.67,225.84L115.24,227.18L115.18,229.20L113.36,230.08L112.99,230.22L114.38,230.55L116.43,231.02L118.42,231.67L120.33,232.34Z " data-code="GHA" data-country="Ghana" data-id="353"/><path d="M77.73,214.00L79.58,213.21L81.56,213.17L82.07,211.15L82.87,209.21L81.44,207.71L83.35,207.04L85.17,207.90L84.68,205.85L83.56,204.08L83.83,201.98L82.56,200.42L82.70,198.37L83.43,196.39L83.75,195.82L83.98,195.38L82.31,194.21L81.95,192.20L82.13,190.16L80.24,189.34L81.81,188.07L80.15,186.85L79.24,185.01L78.98,182.44L78.21,180.56L76.12,180.37L74.97,182.04L73.17,182.93L71.35,182.04L69.30,182.39L67.25,182.61L65.26,182.41L63.18,182.12L63.78,180.21L63.46,180.08L61.41,180.30L59.42,180.01L57.39,180.26L55.42,179.81L53.43,179.33L51.82,178.13L49.64,177.94L49.64,178.26L49.67,180.41L47.93,181.57L49.08,183.22L47.63,184.62L45.59,184.57L43.90,185.74L42.17,186.82L41.18,188.67L41.77,189.58L42.86,191.28L43.21,193.26L44.57,194.80L46.19,196.04L48.17,196.48L48.32,197.25L48.61,199.23L50.13,200.62L50.10,202.66L51.65,202.56L53.10,201.06L54.33,199.42L55.44,197.70L57.33,196.96L59.31,196.48L61.35,196.45L63.57,196.50L64.71,198.21L65.60,200.08L66.24,201.98L66.90,203.95L67.03,206.00L66.91,208.00L68.55,206.82L68.70,206.81L70.06,207.30L72.04,206.90L73.53,208.36L73.94,210.36L74.08,212.36L74.49,214.35L76.23,215.36Z " data-code="GIN" data-country="Guinea" data-id="354"/><path d="M41.14,188.73L41.18,188.67L42.17,186.82L43.90,185.74L45.59,184.57L47.63,184.62L49.08,183.22L47.93,181.57L49.67,180.41L49.64,178.26L49.64,177.94L47.82,177.86L45.54,177.78L43.08,177.69L41.05,177.59L39.19,178.40L37.18,179.17L35.14,178.80L33.08,179.46L31.07,179.60L31.81,180.02L33.81,180.41L33.75,182.49L35.30,183.82L37.25,183.32L39.05,182.38L41.08,182.64L41.09,182.71L39.48,183.93L41.12,185.14L39.12,185.14L37.75,186.66L39.43,187.75L40.83,189.19Z " data-code="GUB" data-country="Guinea-Bissau" data-id="374"/><path d="M387.96,294.63L389.04,292.93L389.27,290.88L390.82,289.47L391.11,288.60L391.75,286.60L392.92,284.97L393.20,282.92L394.33,281.24L396.46,280.62L398.17,279.48L398.82,277.58L400.69,276.83L402.13,275.17L401.94,274.41L400.77,272.78L399.54,271.05L398.53,268.52L398.54,266.06L398.47,264.03L398.47,261.60L398.47,259.33L398.46,257.31L398.45,254.89L398.44,252.23L398.41,250.23L398.40,248.19L398.37,245.35L400.06,243.60L401.34,241.85L402.69,239.78L404.05,237.72L402.02,237.76L399.91,237.88L398.16,236.86L396.28,236.05L394.36,236.92L392.13,237.90L390.52,239.58L389.17,241.42L387.04,241.10L384.97,240.90L383.06,240.28L380.99,240.26L379.11,239.50L376.83,238.07L374.81,236.68L373.15,235.50L370.82,234.85L368.46,234.82L366.42,234.84L365.76,233.73L364.31,233.74L362.05,233.77L359.42,233.80L355.76,233.83L353.14,236.30L353.63,237.78L354.95,239.41L355.81,241.23L356.25,243.20L357.29,244.93L358.47,246.55L359.29,248.40L359.65,250.38L359.85,252.37L358.94,254.21L358.20,256.10L356.59,257.29L355.63,259.05L354.23,260.48L353.57,262.37L353.05,264.30L353.03,266.37L352.88,268.52L352.91,270.66L354.08,270.86L355.86,271.90L357.69,272.97L359.46,273.99L361.22,275.01L363.33,276.23L365.25,277.32L366.98,278.33L368.52,279.23L370.29,280.26L372.08,281.32L373.83,282.31L375.94,283.53L377.21,285.45L377.52,287.66L379.00,289.31L379.02,289.33L379.16,289.44L381.39,291.12L383.09,292.35L385.05,293.78L386.80,295.07Z " data-code="KEN" data-country="Kenya" data-id="424"/><path d="M309.77,461.66L310.36,459.73L312.19,458.91L314.18,458.61L315.94,457.64L315.93,456.34L317.26,454.84L317.28,452.82L315.81,451.46L314.22,450.23L312.43,449.31L310.52,449.90L308.81,450.99L307.31,452.32L306.12,453.75L304.65,455.11L304.17,457.07L305.06,458.90L306.27,460.52L307.75,461.93Z " data-code="LES" data-country="Lesotho" data-id="445"/><path d="M84.60,232.86L84.89,230.87L85.42,228.92L85.92,226.95L85.80,224.95L83.91,224.28L83.17,222.28L81.20,221.94L79.63,220.61L80.16,218.67L80.63,216.65L80.09,214.55L79.58,213.21L77.73,214.00L76.23,215.36L74.49,214.35L74.08,212.36L73.94,210.36L73.53,208.36L72.04,206.90L70.06,207.30L68.70,206.81L68.65,206.97L67.72,209.18L66.44,210.77L65.03,212.81L65.00,212.92L63.32,214.11L61.79,215.48L60.76,217.19L60.85,217.51L62.12,219.09L64.02,220.16L64.68,221.50L66.51,222.32L68.26,223.35L69.55,224.88L70.93,226.34L72.47,227.71L73.87,229.23L75.40,230.54L77.18,231.55L78.98,232.56L80.77,233.49L82.85,234.13L84.82,234.87Z " data-code="LIB" data-country="Liberia" data-id="446"/><path d="M287.20,134.23L293.44,134.21L293.36,131.68L293.27,128.21L293.18,124.69L293.09,121.34L293.04,119.21L292.99,117.08L292.93,114.95L292.87,112.82L292.81,110.69L292.76,108.56L292.69,106.24L292.63,104.08L292.56,101.64L292.49,99.51L292.43,97.39L292.36,95.27L292.30,93.15L292.23,91.04L292.16,88.92L292.09,86.80L292.03,84.69L291.96,82.58L291.88,80.47L291.81,78.36L291.74,76.26L291.26,74.28L290.76,72.26L290.07,69.87L290.69,67.81L291.37,65.86L290.82,63.75L290.40,61.68L291.75,60.18L292.01,60.07L291.47,59.13L289.93,57.84L287.84,57.96L285.81,57.80L284.02,56.89L281.99,56.84L280.04,55.85L279.41,53.86L277.43,53.14L275.50,52.56L273.49,52.39L271.38,52.45L269.44,53.24L267.45,53.78L265.42,54.73L263.80,56.00L262.50,57.65L261.90,59.82L262.48,61.86L263.29,63.71L262.43,65.56L261.10,67.18L259.27,68.32L257.17,68.94L255.26,68.33L253.70,67.29L252.12,66.00L250.17,65.22L248.34,64.36L246.36,63.61L244.36,63.11L242.31,62.89L240.29,62.67L238.33,62.01L236.78,60.69L235.84,58.85L235.63,56.79L234.29,55.29L232.25,55.08L230.39,54.29L228.44,53.25L226.36,52.80L224.40,52.10L222.41,52.44L220.34,52.68L218.33,52.34L216.56,51.24L214.30,50.21L213.83,52.24L214.21,54.26L212.50,55.58L210.54,56.30L208.83,57.54L207.53,59.06L205.79,60.10L205.72,62.10L206.04,64.09L205.08,65.86L203.59,67.56L201.54,68.36L201.23,70.42L201.95,72.32L202.57,74.59L202.71,76.74L202.52,78.81L202.19,80.92L202.62,82.93L202.29,84.93L201.41,86.74L201.62,88.76L201.94,90.81L200.71,92.42L199.06,93.62L199.81,95.87L200.91,97.58L202.05,99.36L202.07,101.73L202.99,103.76L204.62,105.05L207.12,105.08L208.88,106.04L210.80,106.86L212.00,108.65L212.93,110.53L213.34,111.36L214.91,111.77L217.36,112.36L219.80,112.95L222.41,113.65L224.18,114.92L225.66,116.27L227.83,116.63L229.83,115.73L231.68,114.90L233.90,113.88L235.78,113.03L237.65,112.19L239.66,112.99L241.50,113.91L243.54,114.93L245.35,115.84L247.31,116.82L249.95,118.14L252.42,119.38L254.22,120.29L256.58,121.48L262.30,124.39L264.47,125.49L266.44,126.54L268.54,127.60L270.73,128.74L272.55,129.69L274.34,130.62L276.14,131.57L277.95,132.53L279.74,133.46L281.54,134.41L283.50,135.43L285.31,136.38L287.25,137.39Z " data-code="LAJ" data-country="Libya" data-id="447"/><path d="M415.38,433.43L417.10,432.35L419.21,431.54L421.32,431.35L423.27,430.82L425.01,429.39L426.11,427.61L427.01,425.68L428.02,423.94L428.91,422.09L429.63,420.20L430.52,418.04L431.39,415.78L432.03,413.76L432.98,411.88L433.95,410.08L434.90,408.16L435.70,406.23L436.55,404.39L437.35,402.12L438.19,400.21L439.30,398.32L439.97,396.31L440.82,394.43L441.62,392.48L442.55,390.70L443.44,388.90L444.41,386.64L445.08,384.69L445.63,382.58L445.43,380.54L446.39,378.53L448.08,377.30L448.61,375.37L448.94,373.33L448.18,371.45L448.09,369.35L449.73,368.17L450.13,370.15L452.12,370.38L453.03,368.57L453.28,366.51L452.56,364.61L452.17,362.62L452.39,360.56L452.22,358.51L452.16,356.48L451.86,354.35L451.51,352.31L450.73,350.34L449.73,348.48L448.69,346.72L447.18,345.38L446.04,347.05L445.21,348.89L445.42,350.91L444.46,352.69L443.42,354.42L441.46,354.93L440.48,356.71L439.60,354.87L438.31,356.40L439.28,358.17L439.19,358.21L437.64,359.51L437.03,361.42L436.33,363.31L434.79,364.61L434.99,362.58L433.59,364.51L432.97,366.43L431.58,367.90L431.52,365.87L429.82,367.12L428.11,368.21L427.14,369.99L425.22,369.41L423.22,369.73L421.70,371.04L419.68,371.19L417.77,371.97L415.72,371.96L415.70,373.97L414.75,375.91L413.61,377.58L412.51,379.32L411.79,381.21L411.97,383.25L412.01,385.29L412.34,387.28L412.90,389.26L412.76,391.32L413.72,393.12L413.19,395.23L413.52,396.79L412.25,398.34L411.01,399.93L410.16,401.75L408.96,403.37L407.89,405.15L406.28,406.33L405.25,408.08L404.38,410.03L404.26,412.11L404.42,414.18L405.08,416.18L405.65,418.21L405.60,420.31L405.37,422.38L405.13,424.37L405.92,426.21L406.41,428.23L407.52,429.97L409.27,431.42L411.55,432.51L413.27,433.60Z " data-code="MAD" data-country="Madagascar" data-id="448"/><path d="M358.37,373.56L358.59,371.56L359.83,369.88L361.81,369.53L362.28,367.58L362.57,365.55L362.35,363.55L362.90,361.34L362.11,359.37L360.77,357.36L359.54,355.72L358.30,353.98L356.74,352.60L354.89,351.84L355.12,349.85L355.04,347.84L354.60,345.89L354.59,343.88L355.45,342.07L356.10,340.18L354.79,336.75L354.81,331.60L351.53,327.51L349.51,327.21L347.70,326.36L345.78,325.79L347.01,327.19L348.29,328.74L348.73,330.71L349.57,332.55L349.25,334.54L347.77,335.90L348.00,337.92L347.14,339.79L347.58,341.77L347.33,343.84L348.45,345.54L346.77,346.70L345.08,347.86L345.13,349.98L344.65,351.95L343.16,353.32L344.53,354.91L346.35,355.86L346.86,356.75L347.92,358.45L349.74,359.30L351.76,358.90L353.75,358.65L354.54,360.22L354.78,362.21L354.77,364.24L353.64,365.88L352.55,367.58L353.46,369.39L354.20,371.26L355.50,372.84L356.88,374.29L358.49,375.61Z " data-code="MAA" data-country="Malawi" data-id="531"/><path d="M85.40,194.65L87.44,194.56L89.34,195.62L91.08,194.63L92.06,194.63L93.71,193.28L95.07,194.76L97.08,194.76L99.06,194.31L99.27,194.45L99.70,192.44L99.67,190.26L101.21,188.94L101.61,186.92L100.56,185.22L102.38,184.35L104.40,184.08L105.41,183.75L106.55,182.08L106.95,180.10L108.36,178.63L107.75,176.69L109.35,175.34L111.47,175.38L113.12,176.61L114.79,175.51L114.87,173.46L116.93,173.58L117.68,171.22L120.05,169.30L122.29,170.33L123.27,168.17L127.51,166.61L129.47,165.86L131.11,164.59L133.04,164.47L135.02,164.81L136.99,165.20L137.28,165.17L139.07,165.14L141.15,165.40L143.11,164.40L144.96,163.48L147.07,163.38L149.50,163.23L151.66,163.07L153.73,163.14L155.76,163.27L158.15,162.97L159.44,161.34L160.81,159.80L161.59,157.84L162.01,155.88L162.11,153.85L163.26,151.88L163.39,149.70L163.53,147.60L163.66,145.56L163.83,143.29L164.01,140.75L164.14,138.71L162.11,139.07L160.02,139.44L157.99,139.28L157.86,137.26L158.15,135.25L157.09,133.52L155.17,132.86L153.24,132.34L151.45,131.38L149.58,130.59L148.58,128.76L146.80,127.77L146.37,125.79L144.96,124.35L143.30,123.12L141.58,121.85L139.67,120.44L138.16,118.78L136.57,117.51L134.72,116.04L133.01,114.65L131.43,113.37L129.74,112.00L127.92,110.53L126.35,109.27L124.78,108.02L123.10,106.65L121.48,105.38L119.90,104.09L118.30,102.80L116.33,101.20L114.54,99.71L113.28,98.66L112.27,98.58L103.02,98.85L102.79,103.66L102.66,106.03L102.60,108.08L102.53,110.10L102.46,112.14L102.38,114.15L102.33,116.21L102.27,118.23L102.21,120.24L102.15,122.78L102.12,124.87L102.09,126.94L102.05,128.94L102.01,131.21L101.98,133.26L101.96,135.30L101.94,137.40L101.91,139.43L101.90,141.43L101.89,143.45L101.88,145.57L101.89,147.57L101.88,149.58L101.89,151.65L103.49,155.34L102.37,159.12L100.75,160.78L98.52,160.73L96.40,160.65L94.18,160.56L91.77,160.50L89.72,160.40L87.09,160.32L84.86,160.24L82.47,160.15L80.08,160.06L77.74,159.44L75.91,160.54L73.90,160.76L71.79,160.13L69.76,160.54L68.11,161.67L66.53,160.05L65.01,158.74L63.45,160.10L62.74,161.97L62.03,163.93L60.03,164.23L60.49,165.19L60.58,167.21L60.89,169.21L60.29,171.30L61.37,173.05L63.06,174.22L63.89,176.05L63.66,178.11L63.78,180.21L63.18,182.12L65.26,182.41L67.25,182.61L69.30,182.39L71.35,182.04L73.17,182.93L74.97,182.04L76.12,180.37L78.21,180.56L78.98,182.44L79.24,185.01L80.15,186.85L81.81,188.07L80.24,189.34L82.13,190.16L81.95,192.20L82.31,194.21L83.98,195.38L83.75,195.82Z " data-code="MAL" data-country="Mali" data-id="535"/><path d="M62.03,163.93L62.74,161.97L63.45,160.10L65.01,158.74L66.53,160.05L68.11,161.67L69.76,160.54L71.79,160.13L73.90,160.76L75.91,160.54L77.74,159.44L80.08,160.06L82.47,160.15L84.86,160.24L87.09,160.32L89.72,160.40L91.77,160.50L94.18,160.56L96.40,160.65L98.52,160.73L100.75,160.78L102.37,159.12L103.49,155.34L101.89,151.65L101.88,149.58L101.89,147.57L101.88,145.57L101.89,143.45L101.90,141.43L101.91,139.43L101.94,137.40L101.96,135.30L101.98,133.26L102.01,131.21L102.05,128.94L102.09,126.94L102.12,124.87L102.15,122.78L102.21,120.24L102.27,118.23L102.33,116.21L102.38,114.15L102.46,112.14L102.53,110.10L102.60,108.08L102.66,106.03L102.79,103.66L103.02,98.85L112.27,98.58L113.28,98.66L111.68,97.32L109.53,95.52L108.35,94.54L106.77,93.23L105.10,91.88L103.50,90.53L101.92,89.22L100.03,87.71L98.20,86.25L96.36,84.82L94.54,83.36L93.35,82.41L93.04,84.03L92.60,86.50L92.17,88.97L91.26,90.83L88.83,90.66L86.41,90.50L84.15,90.36L81.99,90.21L79.95,90.07L77.54,89.91L75.12,89.74L72.48,90.16L72.43,90.45L71.99,92.76L71.52,95.25L71.06,97.75L70.70,99.74L70.29,102.03L69.96,104.05L68.83,106.35L66.78,106.41L64.12,107.12L62.70,108.96L61.99,111.27L61.82,113.32L61.66,115.47L61.47,117.98L60.70,119.99L58.53,119.83L56.15,119.66L53.70,119.50L52.99,119.45L50.60,119.28L48.24,119.13L45.87,118.98L43.50,118.84L41.14,118.71L38.77,118.58L37.41,120.28L36.92,122.23L37.33,121.26L38.58,119.53L38.73,121.53L40.13,123.04L40.72,125.11L40.86,127.14L40.55,129.13L39.87,131.04L38.96,132.92L39.89,134.72L39.99,136.73L40.19,138.77L40.07,140.78L39.67,142.77L39.09,144.70L38.25,146.54L37.28,148.30L36.26,150.37L35.63,152.28L35.29,154.26L35.65,153.89L36.61,152.13L38.53,151.54L40.54,151.67L42.50,151.26L44.53,150.85L46.55,150.86L48.56,151.01L50.04,152.41L51.10,154.16L53.05,154.64L54.27,156.27L54.84,158.20L56.26,159.64L57.03,161.54L58.78,162.61L60.03,164.23Z " data-code="MAU" data-country="Mauritania" data-id="536"/><path d="M94.25,77.57L94.67,75.27L95.08,73.19L96.89,72.18L98.64,71.18L100.40,70.18L102.31,69.30L104.17,68.27L106.23,68.00L108.34,68.34L110.27,67.66L112.30,67.24L114.35,66.94L116.33,66.38L117.84,64.86L118.78,62.92L121.14,61.96L123.25,61.60L125.23,61.10L125.70,59.07L126.77,57.33L128.52,56.14L130.51,55.84L131.42,53.98L133.54,53.54L135.70,53.39L138.01,53.73L140.12,53.85L141.53,52.29L141.37,50.27L140.24,48.60L139.90,46.58L140.61,44.71L140.61,42.06L140.62,39.81L140.89,37.45L139.52,35.79L138.98,34.89L138.30,34.59L136.20,34.44L134.65,33.15L132.70,33.80L130.61,33.46L128.60,33.44L126.50,33.44L124.49,32.37L123.08,30.66L122.83,28.45L120.85,28.86L119.21,30.09L118.02,32.07L116.87,33.96L115.71,35.73L114.37,37.47L113.09,39.04L111.50,40.41L109.54,41.23L107.67,42.14L105.70,42.70L105.32,42.79L103.33,43.39L101.55,44.35L100.12,45.82L98.48,47.08L96.89,48.30L96.53,50.34L95.25,51.89L93.71,53.28L92.41,55.04L91.78,56.94L91.38,58.90L91.50,60.89L91.64,62.92L90.66,64.67L89.13,66.23L87.87,67.82L86.37,69.18L84.86,70.51L82.89,71.44L81.07,72.45L79.47,73.77L77.79,74.90L75.83,75.50L73.86,76.01L71.82,76.23L69.64,76.69L68.19,78.12L75.86,78.71L85.34,79.41L93.80,79.99Z " data-code="MOR" data-country="Morocco" data-id="546"/><path d="M339.24,438.63L339.60,436.44L338.35,434.81L337.28,433.07L338.94,431.84L340.11,430.21L341.99,429.15L344.03,428.28L345.93,427.59L347.84,426.92L349.80,426.29L351.76,425.69L353.95,424.66L355.28,423.09L356.37,421.31L356.02,419.20L356.48,417.09L357.09,414.99L357.20,412.96L357.49,410.89L356.43,409.12L356.36,406.99L355.96,405.00L355.41,403.03L355.32,401.02L353.92,399.52L353.07,397.69L353.90,395.84L354.81,394.02L356.52,392.88L358.09,391.57L359.48,390.06L361.01,388.75L363.09,388.02L364.59,386.59L366.03,385.17L367.33,383.58L368.85,382.17L370.51,380.58L372.26,379.42L374.09,378.57L376.13,377.87L377.87,376.85L379.86,376.57L381.85,376.19L383.32,374.81L385.11,373.87L386.57,372.45L388.14,371.12L389.18,369.38L390.65,367.96L392.00,366.41L391.87,364.39L392.90,362.66L394.07,361.03L393.27,359.19L393.12,357.13L392.92,355.01L392.81,352.99L393.03,351.43L392.30,349.54L393.57,347.94L392.96,345.96L393.06,343.91L392.86,341.83L393.12,339.78L393.54,337.74L394.02,335.78L392.96,333.74L391.60,334.63L389.94,335.75L387.97,336.51L386.10,337.51L384.09,337.90L382.14,338.56L380.29,339.39L378.50,338.49L376.61,339.16L375.39,340.77L373.44,341.27L371.52,340.65L369.52,340.85L367.52,341.04L365.59,340.21L365.47,340.11L364.42,339.26L362.56,340.20L360.55,340.07L358.11,340.13L356.10,340.18L355.45,342.07L354.59,343.88L354.60,345.89L355.04,347.84L355.12,349.85L354.89,351.84L356.74,352.60L358.30,353.98L359.54,355.72L360.77,357.36L362.11,359.37L362.90,361.34L362.35,363.55L362.57,365.55L362.28,367.58L361.81,369.53L359.83,369.88L358.59,371.56L358.37,373.56L358.49,375.61L356.88,374.29L355.50,372.84L354.20,371.26L353.46,369.39L352.55,367.58L353.64,365.88L354.77,364.24L354.78,362.21L354.54,360.22L353.75,358.65L351.76,358.90L349.74,359.30L347.92,358.45L346.86,356.75L346.35,355.86L346.24,355.90L344.34,356.55L342.44,357.21L340.52,357.78L338.58,358.33L336.68,358.97L334.85,359.78L332.90,360.25L330.94,360.72L329.05,361.41L327.23,362.25L327.93,364.13L328.27,366.11L328.31,366.55L328.22,368.60L333.05,368.69L334.84,369.71L336.80,370.39L338.41,371.61L340.60,371.83L342.42,372.91L343.12,374.80L343.99,376.61L343.71,378.75L343.59,380.82L343.65,382.83L343.75,384.84L343.06,386.77L341.61,388.21L342.40,390.08L342.26,392.08L343.37,393.82L342.18,395.47L341.42,397.39L339.79,398.58L339.70,400.61L338.99,402.61L337.81,404.25L336.33,405.73L334.87,407.17L333.41,408.64L331.70,410.20L331.95,411.18L332.46,413.14L332.94,415.11L332.94,417.15L333.71,419.02L334.60,420.82L335.10,422.77L334.95,424.81L334.97,426.86L334.80,428.90L334.57,430.91L334.23,432.88L334.88,434.44L334.88,436.48L334.75,438.59L334.90,438.69L336.92,438.78L339.27,438.81Z " data-code="MOZ" data-country="Mozambique" data-id="547"/><path d="M259.20,449.40L260.72,448.09L262.30,446.80L262.30,444.77L262.30,442.74L262.30,440.71L262.30,438.68L262.29,436.65L262.29,434.62L262.29,432.58L262.30,430.55L262.30,428.52L262.29,426.48L262.30,424.46L262.30,422.23L262.30,418.69L262.30,415.11L262.30,408.39L268.47,406.81L268.49,399.91L268.50,396.11L268.51,393.42L268.53,388.70L268.57,383.13L271.51,383.14L278.02,381.84L281.07,381.24L283.10,381.16L284.28,382.83L286.19,383.44L287.65,382.05L289.45,381.13L291.49,381.03L292.30,380.44L294.34,380.13L295.34,379.83L294.40,379.11L292.64,378.14L290.60,378.10L288.62,377.86L283.86,378.79L280.72,379.44L278.01,379.96L273.36,380.86L271.36,381.25L269.41,380.71L267.44,381.35L265.47,380.82L263.51,380.35L261.36,380.34L259.23,380.20L257.22,379.95L255.21,379.86L253.58,378.69L252.27,377.18L250.10,377.19L247.99,377.20L245.98,377.23L243.91,377.23L239.07,377.23L236.43,377.23L234.26,377.24L231.76,377.25L228.56,377.27L225.92,377.25L225.87,377.25L224.97,377.58L223.11,376.71L221.38,375.65L221.48,375.42L221.47,375.39L220.67,374.75L220.35,374.65L218.31,374.70L216.60,375.76L214.65,376.27L213.35,376.30L212.60,375.92L210.71,376.65L210.23,377.61L210.32,379.72L211.05,381.70L211.99,383.47L213.23,385.24L214.71,386.76L215.95,388.49L216.80,390.31L217.81,392.08L218.79,393.86L219.87,395.56L220.55,397.45L221.28,399.31L222.41,401.16L223.66,402.80L224.71,404.58L225.85,406.31L227.18,407.90L228.20,409.66L228.74,411.62L228.07,413.52L228.55,415.58L228.77,417.65L228.51,419.74L229.23,421.96L230.00,423.86L230.81,425.70L230.98,427.71L231.42,429.69L231.62,431.70L232.03,433.66L233.01,435.45L233.18,437.65L233.94,439.53L234.66,441.47L235.68,443.19L236.71,444.93L238.20,446.33L239.84,447.79L241.37,449.10L243.06,448.04L243.60,446.11L245.60,446.14L246.54,447.94L247.96,449.38L249.90,449.91L251.77,450.70L253.76,450.48L255.76,450.41L257.73,450.82Z " data-code="NAM" data-country="Namibia" data-id="618"/><path d="M157.58,185.65L157.82,183.59L158.17,181.53L159.77,180.27L160.92,178.57L161.21,176.26L162.68,174.76L164.76,173.88L166.84,173.93L168.81,173.63L170.84,173.29L173.10,174.21L175.13,174.62L176.76,175.97L177.99,177.80L179.63,178.96L181.61,178.33L183.47,177.46L185.41,176.92L187.45,177.83L189.27,178.83L191.12,179.94L193.14,180.24L195.38,180.38L197.20,179.38L198.65,177.98L200.59,177.41L202.73,176.90L204.75,176.81L206.77,176.83L208.82,177.25L210.78,177.87L212.70,178.57L214.69,178.32L216.20,177.00L217.90,175.89L219.66,174.87L221.68,174.75L221.27,172.78L220.87,170.79L222.16,169.10L222.87,167.20L224.01,165.40L225.25,163.66L226.54,161.94L228.07,160.34L229.47,158.90L231.32,156.93L232.81,155.40L233.97,153.75L234.11,151.65L234.23,149.60L234.37,147.56L234.54,145.03L234.68,142.97L234.93,140.88L235.29,138.47L235.57,136.47L235.91,134.48L237.33,132.14L235.97,130.27L234.72,128.64L234.29,126.67L232.64,124.62L232.67,122.35L232.46,119.98L232.03,117.31L231.69,115.19L231.67,115.00L229.83,115.73L227.83,116.63L225.66,116.27L224.18,114.92L222.41,113.65L219.80,112.95L217.36,112.36L214.91,111.77L213.34,111.36L211.59,112.35L209.70,113.42L207.95,114.43L206.09,115.50L204.28,116.55L202.43,117.63L200.23,118.91L198.20,120.07L196.18,121.26L194.37,122.34L192.62,123.37L190.79,124.45L188.94,125.55L187.11,126.63L185.37,127.67L183.52,128.95L181.71,130.42L180.13,131.77L178.50,133.12L176.72,134.65L174.85,136.26L174.02,136.98L171.88,137.35L169.51,137.75L167.17,138.15L164.73,138.59L164.14,138.71L164.01,140.75L163.83,143.29L163.66,145.56L163.53,147.60L163.39,149.70L163.26,151.88L162.11,153.85L162.01,155.88L161.59,157.84L160.81,159.80L159.44,161.34L158.15,162.97L155.76,163.27L153.73,163.14L151.66,163.07L149.50,163.23L147.07,163.38L144.96,163.48L143.11,164.40L141.15,165.40L139.07,165.14L137.28,165.17L137.04,167.27L137.43,169.26L137.86,171.22L138.97,172.94L140.58,174.22L142.33,175.63L141.31,177.46L143.00,179.19L144.82,180.81L147.05,180.46L148.91,181.22L149.48,185.21L149.83,185.71L149.73,183.68L151.65,183.09L153.66,183.30L155.07,184.78L156.64,186.08L157.38,187.17Z " data-code="NIG" data-country="Niger" data-id="625"/><path d="M174.04,235.64L176.06,235.55L177.98,234.95L180.00,234.94L182.14,234.59L184.13,234.37L186.14,234.37L187.77,233.14L188.86,231.44L189.67,229.46L190.29,227.48L190.38,225.48L191.98,224.11L193.24,222.53L194.90,221.37L196.05,219.72L197.86,218.66L199.88,218.94L201.21,217.44L202.81,218.69L203.88,220.41L205.62,221.45L207.47,220.60L208.01,218.66L209.22,216.97L209.18,216.71L210.43,215.12L210.99,213.18L211.89,211.36L212.06,209.20L213.62,207.90L215.42,206.94L216.30,205.11L216.49,203.06L217.59,202.02L218.87,200.45L219.03,198.40L220.45,196.98L220.65,194.96L221.66,193.17L222.91,191.60L224.74,190.70L226.55,189.66L227.40,187.85L227.86,185.88L227.20,183.99L225.25,183.48L224.90,181.47L224.57,179.43L224.48,178.88L223.51,177.48L222.19,175.50L221.68,174.75L219.66,174.87L217.90,175.89L216.20,177.00L214.69,178.32L212.70,178.57L210.78,177.87L208.82,177.25L206.77,176.83L204.75,176.81L202.73,176.90L200.59,177.41L198.65,177.98L197.20,179.38L195.38,180.38L193.14,180.24L191.12,179.94L189.27,178.83L187.45,177.83L185.41,176.92L183.47,177.46L181.61,178.33L179.63,178.96L177.99,177.80L176.76,175.97L175.13,174.62L173.10,174.21L170.84,173.29L168.81,173.63L166.84,173.93L164.76,173.88L162.68,174.76L161.21,176.26L160.92,178.57L159.77,180.27L158.17,181.53L157.82,183.59L157.58,185.65L157.38,187.17L156.71,189.24L157.88,190.91L158.08,192.96L158.34,195.02L156.86,196.47L156.90,198.58L155.12,199.60L154.19,201.45L153.65,203.39L151.91,204.39L151.05,206.26L151.10,208.27L151.03,210.30L150.63,212.33L150.90,214.36L151.01,216.42L150.61,218.38L150.63,220.40L150.45,222.12L152.19,221.98L154.20,221.97L156.20,221.84L158.32,221.80L160.64,222.16L162.54,222.99L164.09,224.39L165.32,226.12L166.24,227.94L167.27,229.68L167.87,231.68L168.76,233.48L170.27,235.02L172.04,236.01Z " data-code="NIR" data-country="Nigeria" data-id="626"/><path d="M326.82,281.87L327.11,279.82L329.16,279.65L329.76,279.54L329.80,279.48L331.08,279.97L331.26,279.88L332.93,278.61L332.70,276.59L332.60,274.58L331.26,272.97L330.55,271.04L329.73,271.08L328.52,272.68L326.75,273.61L324.78,273.20L323.10,274.34L321.91,276.09L322.02,278.19L320.65,279.67L320.39,281.67L321.12,282.12L323.01,281.48L324.73,282.51Z " data-code="RWA" data-country="Rwanda" data-id="630"/><path d="M63.46,180.08L63.78,180.21L63.66,178.11L63.89,176.05L63.06,174.22L61.37,173.05L60.29,171.30L60.89,169.21L60.58,167.21L60.49,165.19L60.03,164.23L58.78,162.61L57.03,161.54L56.26,159.64L54.84,158.20L54.27,156.27L53.05,154.64L51.10,154.16L50.04,152.41L48.56,151.01L46.55,150.86L44.53,150.85L42.50,151.26L40.54,151.67L38.53,151.54L36.61,152.13L35.65,153.89L35.29,154.26L35.14,154.89L34.46,156.77L33.21,158.52L31.95,160.23L30.33,161.99L28.64,163.11L29.89,163.51L30.99,165.35L31.76,167.24L31.96,169.24L33.00,171.05L34.45,171.12L35.75,171.18L35.76,171.18L37.78,171.28L39.74,170.62L41.67,170.02L43.66,170.48L45.44,171.45L47.40,172.10L49.26,172.27L49.26,172.28L47.88,173.73L45.87,174.01L44.02,173.09L42.05,171.88L40.13,173.00L38.04,172.84L36.09,174.12L33.75,174.01L31.71,173.96L31.36,174.57L31.16,175.77L31.90,177.67L31.07,179.60L33.08,179.46L35.14,178.80L37.18,179.17L39.19,178.40L41.05,177.59L43.08,177.69L45.54,177.78L47.82,177.86L49.64,177.94L51.82,178.13L53.43,179.33L55.42,179.81L57.39,180.26L59.42,180.01L61.41,180.30Z " data-code="SEN" data-country="Senegal" data-id="636"/><path d="M61.79,215.48L63.32,214.11L65.00,212.92L65.03,212.81L66.44,210.77L67.72,209.18L68.65,206.97L68.55,206.82L66.91,208.00L67.03,206.00L66.90,203.95L66.24,201.98L65.60,200.08L64.71,198.21L63.57,196.50L61.35,196.45L59.31,196.48L57.33,196.96L55.44,197.70L54.33,199.42L53.10,201.06L51.65,202.56L50.10,202.66L50.35,204.48L51.44,206.21L50.65,208.14L52.14,209.55L52.90,211.43L54.83,212.08L54.98,214.11L56.95,214.98L59.09,216.06L60.76,217.19Z " data-code="SIL" data-country="Sierra Leone" data-id="642"/><path d="M402.98,273.92L404.13,272.23L405.13,270.49L406.57,268.88L407.80,267.31L409.12,265.74L410.62,264.21L411.96,262.67L413.39,261.03L414.74,259.56L416.27,258.14L417.86,256.89L419.31,255.38L420.84,254.08L422.54,252.75L424.24,251.65L426.07,250.70L427.82,249.61L429.60,248.47L431.15,247.05L432.52,245.46L434.14,244.01L435.58,242.41L436.90,240.76L438.20,239.20L439.59,237.69L440.84,236.13L442.17,234.52L443.25,232.75L444.17,230.86L445.32,229.08L446.72,227.00L447.68,225.21L448.61,223.40L449.14,221.00L449.76,219.07L450.65,217.17L451.66,215.36L452.68,213.61L453.37,211.66L454.02,209.73L455.30,207.92L456.16,206.06L456.82,204.03L457.91,202.25L458.94,200.48L458.85,198.43L459.09,196.38L459.27,194.24L460.51,192.60L460.05,190.47L459.61,188.30L459.90,186.16L460.25,184.13L458.26,183.54L456.18,183.74L455.07,185.53L453.20,186.58L451.23,186.94L449.38,187.79L447.39,188.28L445.38,188.26L443.36,188.35L441.51,189.41L439.42,189.55L437.45,189.17L435.54,189.91L433.78,191.21L432.05,192.33L430.01,192.22L427.92,191.99L425.90,192.19L424.02,192.96L422.20,194.29L420.18,194.71L418.03,194.79L416.21,193.60L414.75,192.45L413.33,190.89L412.26,189.19L410.68,187.87L409.24,190.65L409.02,191.13L407.89,192.89L408.17,194.99L409.20,196.77L410.48,198.38L411.71,199.99L413.13,201.50L414.78,202.72L416.41,203.98L418.34,204.84L420.71,205.61L422.64,206.25L424.69,206.92L426.87,207.62L429.31,208.42L431.23,209.04L433.15,209.69L435.45,210.48L438.04,210.46L440.56,210.41L439.18,213.38L437.87,214.91L435.11,218.11L433.06,220.47L430.88,222.97L429.43,224.63L427.78,226.50L424.16,230.58L421.97,231.26L419.76,231.17L417.50,231.17L415.50,231.63L413.07,232.53L411.27,233.69L410.28,235.47L408.32,236.11L406.28,236.33L404.34,237.18L404.05,237.72L402.69,239.78L401.34,241.85L400.06,243.60L398.37,245.35L398.40,248.19L398.41,250.23L398.44,252.23L398.45,254.89L398.46,257.31L398.47,259.33L398.47,261.60L398.47,264.03L398.54,266.06L398.53,268.52L399.54,271.05L400.77,272.78L401.94,274.41L402.13,275.17Z " data-code="SOM" data-country="Somalia" data-id="673"/><path d="M307.75,461.93L306.27,460.52L305.06,458.90L304.17,457.07L304.65,455.11L306.12,453.75L307.31,452.32L308.81,450.99L310.52,449.90L312.43,449.31L314.22,450.23L315.81,451.46L317.28,452.82L317.26,454.84L315.93,456.34L315.94,457.64L314.18,458.61L312.19,458.91L310.36,459.73L309.77,461.66Z M262.77,487.28L264.51,486.28L266.39,485.54L268.33,485.05L270.37,485.05L272.42,485.12L274.11,484.03L275.89,483.10L277.90,482.98L279.90,483.29L281.85,482.83L283.85,482.94L285.85,483.24L287.77,483.94L289.78,483.66L291.54,482.69L293.50,483.18L294.71,481.58L296.68,481.15L298.68,481.55L300.60,480.86L302.49,480.15L304.22,479.10L305.90,478.01L307.59,476.93L309.09,475.60L310.82,474.55L312.36,473.26L313.84,471.89L315.28,470.46L316.59,468.92L318.27,467.82L319.93,466.63L321.32,465.19L322.36,463.94L323.58,462.34L324.71,460.69L325.72,458.96L326.85,457.29L327.99,455.62L329.34,454.13L330.80,452.71L332.56,451.69L334.18,450.50L335.58,449.02L336.77,447.30L337.30,445.17L338.04,442.77L338.93,440.83L339.27,438.81L336.92,438.78L334.90,438.69L334.75,438.59L333.79,439.67L333.06,441.57L331.03,441.50L329.10,440.86L327.72,439.40L326.82,437.59L327.24,435.59L328.48,433.97L329.54,432.26L331.44,431.62L332.31,432.25L334.23,432.88L334.57,430.91L334.80,428.90L334.97,426.86L334.95,424.81L335.10,422.77L334.60,420.82L333.71,419.02L332.94,417.15L332.94,415.11L332.46,413.14L331.95,411.18L331.70,410.20L331.60,410.09L329.67,409.45L327.66,409.49L325.65,409.57L323.78,408.77L321.83,408.16L319.86,408.52L317.83,408.62L316.52,410.19L314.62,410.90L314.42,410.84L312.51,411.51L311.26,413.13L309.93,414.42L309.86,414.35L308.42,415.79L306.54,416.55L305.78,417.09L305.73,417.10L304.67,418.81L304.06,420.73L302.74,422.28L301.35,423.74L301.21,423.89L301.15,423.91L299.07,424.33L297.76,424.73L297.72,424.78L297.11,427.33L296.42,429.23L295.03,430.73L294.90,430.81L294.83,430.83L292.80,430.81L290.83,431.22L288.85,430.81L286.97,430.09L285.12,429.26L283.47,428.25L283.43,428.21L281.44,427.93L280.66,427.95L280.59,427.97L279.38,429.60L278.81,431.55L277.96,433.28L277.89,433.29L276.54,434.15L276.49,434.20L275.12,435.65L273.30,436.53L271.64,437.72L269.63,437.68L267.64,437.37L266.09,436.10L266.83,434.22L267.28,432.24L266.46,430.39L265.91,428.44L264.89,426.68L263.37,425.35L262.30,424.46L262.29,426.48L262.30,428.52L262.30,430.55L262.29,432.58L262.29,434.62L262.29,436.65L262.30,438.68L262.30,440.71L262.30,442.74L262.30,444.77L262.30,446.80L260.72,448.09L259.20,449.40L257.73,450.82L255.76,450.41L253.76,450.48L251.77,450.70L249.90,449.91L247.96,449.38L246.54,447.94L245.60,446.14L243.60,446.11L243.06,448.04L241.37,449.10L241.96,449.60L242.96,451.36L243.94,453.12L244.69,454.99L245.34,456.90L246.08,458.79L246.90,460.67L247.93,462.39L248.92,464.17L250.03,465.86L251.29,467.44L252.22,469.23L252.59,471.24L252.74,473.27L251.74,475.01L250.22,476.33L251.45,477.91L252.68,479.50L253.51,481.35L253.92,483.32L255.76,484.13L257.39,485.32L259.00,486.51L260.76,487.48Z " data-code="SOU" data-country="South Africa" data-id="688"/><path d="M333.62,240.04L335.46,239.24L337.23,240.23L338.99,239.06L339.91,239.91L341.66,240.94L343.10,239.54L345.18,239.34L347.05,238.63L348.91,239.39L351.01,238.53L353.14,236.30L355.76,233.83L359.42,233.80L362.05,233.77L364.31,233.74L365.76,233.73L364.88,231.93L365.10,229.93L363.53,228.66L361.55,228.98L360.41,227.20L359.50,225.34L359.26,223.31L359.12,221.29L357.42,220.14L355.98,218.70L354.14,217.88L353.04,216.04L351.78,214.47L349.94,213.62L347.98,213.21L346.32,212.06L347.37,210.33L348.59,208.74L350.60,208.73L352.61,208.40L353.53,206.50L353.44,204.50L353.22,202.49L353.13,201.76L351.73,201.09L352.31,199.15L351.58,197.25L350.15,195.62L348.72,194.16L347.34,192.36L346.96,190.37L346.76,186.90L347.11,184.06L343.91,184.80L342.19,185.87L340.19,186.20L341.75,188.04L341.81,190.25L341.78,192.28L340.36,193.79L338.88,195.31L337.60,197.21L335.87,199.33L333.97,200.30L331.37,199.95L329.70,198.69L327.67,197.47L325.29,197.39L323.74,198.72L322.07,200.39L320.06,201.22L318.82,203.03L316.25,203.05L314.13,202.98L312.49,201.40L310.38,201.30L308.34,201.29L306.31,201.98L304.30,201.93L302.77,200.62L301.73,198.91L300.51,197.32L298.76,196.28L296.78,196.65L294.91,197.37L294.24,199.26L292.80,200.67L292.42,202.63L291.74,204.54L291.32,206.54L289.70,207.72L289.32,209.70L291.28,210.16L293.23,210.75L294.66,212.16L296.41,213.14L295.99,215.14L297.53,216.44L299.34,217.30L301.07,218.30L302.54,219.93L303.10,221.92L304.37,223.50L305.93,224.89L307.74,225.85L309.25,227.18L309.39,229.18L310.62,230.87L310.82,231.34L312.43,232.67L313.47,234.39L315.22,235.42L317.12,236.14L318.79,234.90L320.79,234.81L322.72,235.44L323.82,233.66L325.80,234.13L326.94,235.88L328.35,237.31L329.93,238.60L331.09,240.27L332.87,241.21L332.96,241.29Z " data-code="SSU" data-country="South Sudan" data-id="700"/><path d="M291.32,206.54L291.74,204.54L292.42,202.63L292.80,200.67L294.24,199.26L294.91,197.37L296.78,196.65L298.76,196.28L300.51,197.32L301.73,198.91L302.77,200.62L304.30,201.93L306.31,201.98L308.34,201.29L310.38,201.30L312.49,201.40L314.13,202.98L316.25,203.05L318.82,203.03L320.06,201.22L322.07,200.39L323.74,198.72L325.29,197.39L327.67,197.47L329.70,198.69L331.37,199.95L333.97,200.30L335.87,199.33L337.60,197.21L338.88,195.31L340.36,193.79L341.78,192.28L341.81,190.25L341.75,188.04L340.19,186.20L342.19,185.87L343.91,184.80L347.11,184.06L346.76,186.90L346.96,190.37L347.34,192.36L348.72,194.16L350.15,195.62L351.58,197.25L352.31,199.15L351.73,201.09L353.13,201.76L353.56,199.78L354.31,197.80L354.20,195.68L354.84,193.70L356.91,193.32L358.28,191.86L358.39,189.73L358.95,187.78L359.86,185.85L360.80,184.05L361.70,182.18L363.30,180.83L365.41,180.75L365.41,178.73L365.88,176.75L366.51,174.82L367.03,172.67L367.38,170.63L367.43,170.35L366.97,168.33L366.64,166.07L366.97,164.05L367.63,161.45L368.38,159.35L368.91,157.36L369.18,157.10L368.64,155.17L369.25,153.22L370.74,151.84L372.09,150.33L373.76,149.23L375.77,149.14L377.23,147.75L378.28,145.73L378.37,145.66L377.38,144.61L375.47,144.00L374.58,142.20L372.83,141.21L370.98,140.40L370.35,138.49L369.84,136.53L369.44,134.57L368.92,132.63L368.58,130.63L368.23,128.65L367.73,126.71L367.73,124.70L366.66,123.02L365.81,121.18L365.36,119.23L363.74,118.04L362.11,116.85L360.36,115.71L358.74,114.53L357.62,112.82L355.25,115.20L352.88,117.00L350.97,118.72L349.02,119.67L348.46,121.93L345.74,122.31L343.22,120.57L339.25,120.66L336.79,120.72L334.32,120.76L332.86,119.38L329.33,120.88L326.81,120.91L324.32,120.95L321.88,120.98L319.38,121.03L316.93,121.06L314.46,121.11L312.00,121.13L309.54,121.17L307.02,121.20L304.52,121.23L302.02,121.26L299.52,121.29L297.06,121.31L294.60,121.33L293.09,121.34L293.18,124.69L293.27,128.21L293.36,131.68L293.44,134.21L287.20,134.23L287.25,137.39L287.30,140.02L287.35,142.59L287.39,145.17L287.43,147.75L287.48,150.33L287.52,152.91L287.56,155.49L289.64,156.68L287.59,157.43L287.62,159.37L287.65,160.76L287.58,161.94L287.41,161.92L286.74,161.76L286.40,161.69L285.83,161.65L285.51,161.59L284.98,161.62L284.43,161.79L284.13,161.96L283.96,162.02L282.75,161.97L282.15,161.91L282.05,161.95L281.69,162.26L281.67,162.28L281.55,162.51L281.36,162.70L280.89,162.95L280.88,163.19L280.86,163.43L281.21,163.77L281.28,163.82L281.29,164.09L281.29,164.31L281.29,164.86L281.33,165.01L281.24,165.16L281.16,165.27L281.02,165.34L280.95,165.40L280.97,165.79L280.98,165.82L280.77,165.90L280.68,165.90L280.48,166.06L280.33,166.22L279.48,168.06L277.77,169.13L277.63,169.21L277.90,169.94L277.86,170.24L277.85,170.28L277.98,170.86L277.78,171.04L278.28,171.41L278.57,171.64L278.51,172.16L277.77,172.67L276.92,173.16L276.40,173.54L275.84,174.15L275.65,174.45L276.49,176.32L276.49,176.33L276.60,176.65L276.77,176.86L275.57,178.53L274.40,179.70L274.33,179.96L274.07,180.77L274.21,181.07L274.34,181.37L274.73,181.85L274.86,181.82L276.94,181.43L277.41,181.67L277.73,181.80L278.04,181.91L277.91,182.37L277.76,182.75L277.72,182.77L277.74,183.36L277.82,183.45L277.80,183.62L278.28,185.00L278.86,185.61L278.95,185.61L278.75,187.72L280.00,189.37L281.48,190.70L280.89,192.74L280.84,192.90L282.06,194.53L283.57,195.86L284.77,197.75L285.96,199.64L285.86,201.72L285.68,203.75L284.68,205.55L286.07,207.23L288.13,207.34L289.70,207.72Z " data-code="SUD" data-country="Sudan" data-id="701"/><path d="M333.79,439.67L334.75,438.59L334.88,436.48L334.88,434.44L334.23,432.88L332.31,432.25L331.44,431.62L329.54,432.26L328.48,433.97L327.24,435.59L326.82,437.59L327.72,439.40L329.10,440.86L331.03,441.50L333.06,441.57Z " data-code="SWA" data-country="Swaziland" data-id="702"/><path d="M375.39,340.77L376.61,339.16L378.50,338.49L380.29,339.39L382.14,338.56L384.09,337.90L386.10,337.51L387.97,336.51L389.94,335.75L391.60,334.63L392.96,333.74L392.38,332.09L390.46,331.43L389.30,329.75L389.00,327.69L388.59,325.69L387.75,323.88L387.14,321.90L386.58,319.94L387.21,317.99L387.64,315.97L386.66,314.21L387.45,312.28L388.52,310.58L386.92,309.35L385.94,307.57L384.12,306.75L383.88,304.76L384.07,302.75L385.05,300.84L385.78,298.98L386.27,297.02L386.80,295.07L385.05,293.78L383.09,292.35L381.39,291.12L379.16,289.44L379.02,289.33L379.00,289.31L377.52,287.66L377.21,285.45L375.94,283.53L373.83,282.31L372.08,281.32L370.29,280.26L368.52,279.23L366.98,278.33L365.25,277.32L363.33,276.23L361.22,275.01L359.46,273.99L357.69,272.97L355.86,271.90L354.08,270.86L352.91,270.66L350.29,270.67L347.38,270.67L345.30,270.67L341.74,270.67L338.55,270.67L336.55,270.66L334.53,270.66L332.50,270.59L330.55,271.04L331.26,272.97L332.60,274.58L332.70,276.59L332.93,278.61L331.26,279.88L331.08,279.97L330.56,281.93L331.65,283.66L332.81,285.41L331.35,286.80L329.94,288.30L328.86,290.00L327.69,291.65L326.02,292.77L325.11,293.23L325.07,293.23L323.36,293.22L322.99,294.57L322.93,294.88L323.31,297.22L324.01,299.10L324.55,300.90L324.62,301.20L324.67,301.88L324.65,302.14L324.61,302.45L324.48,303.01L324.46,303.15L324.45,304.06L324.73,305.60L324.92,306.10L326.37,307.91L328.01,309.23L329.07,310.97L329.97,313.09L330.91,315.44L331.79,317.44L331.94,317.98L332.75,319.40L334.37,320.62L336.40,320.88L337.76,322.52L339.52,323.50L341.46,323.98L343.51,324.76L345.39,325.67L345.41,325.70L345.78,325.79L347.70,326.36L349.51,327.21L351.53,327.51L354.81,331.60L354.79,336.75L356.10,340.18L358.11,340.13L360.55,340.07L362.56,340.20L364.42,339.26L365.47,340.11L365.59,340.21L367.52,341.04L369.52,340.85L371.52,340.65L373.44,341.27Z " data-code="TAN" data-country="Tanzania" data-id="703"/><path d="M388.57,305.21L387.55,303.45L386.38,303.47L386.56,305.49Z " data-code="TAN" data-country="Tanzania" data-id="704"/><path d="M141.50,223.51L143.48,223.00L144.00,220.96L143.44,219.03L143.72,217.01L143.82,214.70L143.84,212.60L143.90,210.53L143.92,208.48L144.03,206.28L144.01,204.27L142.76,202.52L142.57,200.42L142.59,198.18L140.94,197.03L139.35,195.79L139.26,193.69L139.98,191.78L140.07,191.50L138.05,191.64L136.11,191.06L134.15,190.62L133.44,190.44L134.03,192.36L134.60,194.32L134.98,194.48L135.03,194.59L136.49,195.97L136.58,197.88L136.55,197.90L135.90,199.82L135.36,201.75L137.38,201.97L136.75,203.89L136.62,205.97L137.49,207.83L137.33,209.84L137.33,211.75L137.34,211.91L137.34,211.93L136.78,213.86L137.45,215.38L137.44,215.49L137.05,217.65L137.28,219.73L137.78,220.85L137.70,220.96L139.20,222.31L140.67,223.78Z " data-code="TOG" data-country="Togo" data-id="755"/><path d="M203.59,67.56L205.08,65.86L206.04,64.09L205.72,62.10L205.79,60.10L207.53,59.06L208.83,57.54L210.54,56.30L212.50,55.58L214.21,54.26L213.83,52.24L214.30,50.21L213.48,50.13L211.90,48.82L209.99,48.15L208.26,46.96L206.68,45.72L206.14,43.67L207.63,42.31L209.48,41.46L210.85,40.00L212.11,38.36L212.32,36.36L211.69,34.45L210.17,33.10L209.61,31.17L211.28,29.67L212.60,28.02L212.99,25.85L211.23,26.92L209.11,27.18L208.36,25.30L207.70,24.53L205.76,23.96L203.75,24.53L201.85,25.42L200.00,26.20L198.86,27.88L197.06,28.86L197.90,30.69L197.29,32.73L197.58,34.79L197.82,36.77L196.85,38.55L196.38,40.51L194.70,41.60L193.26,43.10L191.98,44.64L192.11,46.70L192.65,49.10L194.69,50.12L195.72,51.98L196.36,54.29L198.33,55.70L199.85,57.20L200.03,59.22L200.46,61.89L200.85,64.23L201.20,66.38L201.54,68.36Z " data-code="TUN" data-country="Tunisia" data-id="756"/><path d="M328.52,272.68L329.73,271.08L330.55,271.04L332.50,270.59L334.53,270.66L336.55,270.66L338.55,270.67L341.74,270.67L345.30,270.67L347.38,270.67L350.29,270.67L352.91,270.66L352.88,268.52L353.03,266.37L353.05,264.30L353.57,262.37L354.23,260.48L355.63,259.05L356.59,257.29L358.20,256.10L358.94,254.21L359.85,252.37L359.65,250.38L359.29,248.40L358.47,246.55L357.29,244.93L356.25,243.20L355.81,241.23L354.95,239.41L353.63,237.78L353.14,236.30L351.01,238.53L348.91,239.39L347.05,238.63L345.18,239.34L343.10,239.54L341.66,240.94L339.91,239.91L338.99,239.06L337.23,240.23L335.46,239.24L333.62,240.04L332.96,241.29L332.69,243.28L333.14,245.23L332.42,247.10L333.44,248.82L335.29,249.60L334.57,251.78L333.03,253.54L331.02,255.83L329.16,256.58L328.12,258.29L327.21,260.08L326.54,261.98L325.61,263.76L325.35,266.31L325.19,268.31L324.77,270.27L324.88,272.26L324.78,273.20L326.75,273.61Z " data-code="UGA" data-country="Uganda" data-id="760"/><path d="M37.41,120.28L38.77,118.58L41.14,118.71L43.50,118.84L45.87,118.98L48.24,119.13L50.60,119.28L52.99,119.45L53.70,119.50L56.15,119.66L58.53,119.83L60.70,119.99L61.47,117.98L61.66,115.47L61.82,113.32L61.99,111.27L62.70,108.96L64.12,107.12L66.78,106.41L68.83,106.35L69.96,104.05L70.29,102.03L70.70,99.74L71.06,97.75L71.52,95.25L71.99,92.76L72.43,90.45L72.48,90.16L75.12,89.74L77.54,89.91L79.95,90.07L81.99,90.21L84.15,90.36L86.41,90.50L88.83,90.66L91.26,90.83L92.17,88.97L92.60,86.50L93.04,84.03L93.35,82.41L93.80,79.99L85.34,79.41L85.34,79.41L75.86,78.71L68.19,78.12L67.25,79.74L66.09,81.43L65.12,83.29L63.60,84.72L61.81,85.66L59.83,86.63L58.48,88.14L57.30,89.85L56.32,91.70L55.29,93.54L54.95,95.56L53.67,97.37L51.98,98.56L50.45,99.92L48.77,101.33L47.81,103.10L46.59,104.70L45.33,106.37L44.42,108.21L43.33,109.92L42.33,111.65L40.49,112.55L39.37,114.27L38.46,116.27L37.84,118.18L37.25,120.25L36.92,122.23Z " data-code="WES" data-country="Western Sahara" data-id="761"/><path d="M305.57,381.21L307.21,380.02L308.60,378.49L310.16,377.18L310.32,376.68L311.47,374.91L313.29,373.91L315.06,372.87L317.02,372.14L318.09,370.37L318.54,368.40L320.28,367.30L322.22,366.51L324.22,366.05L326.24,366.15L328.27,366.11L327.93,364.13L327.23,362.25L329.05,361.41L330.94,360.72L332.90,360.25L334.85,359.78L336.68,358.97L338.58,358.33L340.52,357.78L342.44,357.21L344.34,356.55L346.24,355.90L346.35,355.86L344.53,354.91L343.16,353.32L344.65,351.95L345.13,349.98L345.08,347.86L346.77,346.70L348.45,345.54L347.33,343.84L347.58,341.77L347.14,339.79L348.00,337.92L347.77,335.90L349.25,334.54L349.57,332.55L348.73,330.71L348.29,328.74L347.01,327.19L345.78,325.79L345.41,325.70L345.39,325.67L343.51,324.76L341.46,323.98L339.52,323.50L337.76,322.52L336.40,320.88L334.37,320.62L332.75,319.40L331.94,317.98L329.83,318.26L327.81,318.50L325.76,318.73L323.63,319.00L321.49,319.30L320.15,320.97L318.94,322.65L317.20,323.97L317.36,325.97L318.18,327.88L317.86,329.95L317.82,332.02L318.05,334.10L316.99,335.82L316.70,337.84L316.09,339.78L316.83,341.70L318.54,342.80L319.93,344.38L321.82,345.06L323.53,343.88L325.09,345.26L325.02,347.69L324.95,349.87L324.89,352.03L323.54,350.44L321.73,351.39L319.74,351.69L318.84,349.82L317.92,348.03L316.63,346.35L314.94,345.14L313.12,344.26L311.12,343.96L310.20,342.04L308.68,340.22L307.12,341.52L305.31,342.47L303.30,341.94L301.23,342.01L299.14,341.18L297.20,340.28L296.30,338.46L294.53,337.47L292.60,337.99L290.80,338.88L290.52,336.78L288.83,335.52L288.01,335.12L288.25,337.26L288.16,339.38L287.97,341.44L287.97,343.50L287.89,345.54L287.32,347.46L284.70,348.77L282.59,348.78L275.09,348.80L275.08,351.53L275.07,353.59L275.01,361.73L274.98,368.19L275.44,370.18L276.53,371.94L277.97,373.44L279.38,374.95L281.02,376.34L282.42,377.91L283.86,378.79L288.62,377.86L290.60,378.10L292.64,378.14L294.40,379.11L295.34,379.83L295.42,379.90L295.91,380.19L297.94,380.05L299.60,381.21L301.61,380.73L303.56,381.28Z " data-code="ZAM" data-country="Zambia" data-id="762"/><path d="M333.41,408.64L334.87,407.17L336.33,405.73L337.81,404.25L338.99,402.61L339.70,400.61L339.79,398.58L341.42,397.39L342.18,395.47L343.37,393.82L342.26,392.08L342.40,390.08L341.61,388.21L343.06,386.77L343.75,384.84L343.65,382.83L343.59,380.82L343.71,378.75L343.99,376.61L343.12,374.80L342.42,372.91L340.60,371.83L338.41,371.61L336.80,370.39L334.84,369.71L333.05,368.69L328.22,368.60L328.31,366.55L328.27,366.11L326.24,366.15L324.22,366.05L322.22,366.51L320.28,367.30L318.54,368.40L318.09,370.37L317.02,372.14L315.06,372.87L313.29,373.91L311.47,374.91L310.32,376.68L310.16,377.18L308.60,378.49L307.21,380.02L305.57,381.21L303.56,381.28L301.61,380.73L299.60,381.21L297.94,380.05L295.91,380.19L295.42,379.90L295.99,381.93L296.92,383.70L298.34,385.17L299.23,386.99L299.94,388.91L300.63,390.90L302.21,392.29L303.90,393.46L305.80,394.32L307.43,395.56L308.41,397.34L310.08,398.45L310.04,400.46L310.91,402.42L311.73,404.30L313.73,404.61L315.72,405.02L317.61,405.74L318.33,407.61L319.86,408.52L321.83,408.16L323.78,408.77L325.65,409.57L327.66,409.49L329.67,409.45L331.60,410.09L331.70,410.20Z " data-code="ZIM" data-country="Zimbabwe" data-id="763"/></g></svg>